<svg xmlns="http://www.w3.org/2000/svg" viewBox="0 0 230.65 232.11"><defs><style>.cls-1{fill:#fff;}</style></defs><title>border_frame</title><g id="Layer_2" data-name="Layer 2"><g id="Layer_1-2" data-name="Layer 1"><g id="Layer_2-2" data-name="Layer 2"><g id="Layer_1-2-2" data-name="Layer 1-2"><path class="cls-1" d="M115.64,232.11c-35.28,0-104.77-34.87-114-86.74C-.24,135-3.46,71.82,11.87,29.65c4.3-11.83,12-20.25,22.74-25,25.6-11.3,62.34.58,82,8.66C151.24,27.57,189.8,55.06,217.2,85c10.25,11.21,14.68,24.92,13.16,40.74-3.58,37.34-38.34,74.39-54.61,86.48C163.5,221.35,149,230.39,118.29,232,117.43,232.09,116.54,232.11,115.64,232.11ZM59.41,3.68C51.15,3.68,43.16,4.92,36.11,8c-9.83,4.34-16.81,12-20.76,22.89C.27,72.39,3.44,134.53,5.25,144.72c5.44,30.45,31.9,51.58,47.19,61.47,21.93,14.19,48.31,23.09,65.65,22.15,29.67-1.6,43.16-9.94,55.45-19.07,19.58-14.55,50-51.26,53.13-83.86,1.41-14.73-2.7-27.48-12.21-37.89-27.06-29.59-65.1-56.72-99.29-70.8h0C101.62,11.14,79.7,3.68,59.41,3.68Z"/></g></g></g></g></svg>