<svg xmlns="http://www.w3.org/2000/svg" viewBox="0 0 48.15 48.14"><defs><style>.cls-1,.cls-2{fill:#fff;}.cls-1{fill-rule:evenodd;}</style></defs><title>footer_ig</title><g id="Layer_2" data-name="Layer 2"><g id="Layer_1-2" data-name="Layer 1"><path class="cls-1" d="M29.19,16.17H18.33a2.47,2.47,0,0,0-2.47,2.47V29.5A2.47,2.47,0,0,0,18.33,32H29.19a2.47,2.47,0,0,0,2.47-2.47V18.64A2.47,2.47,0,0,0,29.19,16.17Zm-2,2.18a.44.44,0,0,1,.44-.44h1.91a.44.44,0,0,1,.44.44v1.91a.44.44,0,0,1-.44.44H27.58a.44.44,0,0,1-.44-.44Zm-6.29,4.58a3.13,3.13,0,0,1,5.82,0,3.1,3.1,0,0,1,.22,1.14,3.13,3.13,0,1,1-6.26,0A3.08,3.08,0,0,1,20.85,22.93ZM30,29.5a.8.8,0,0,1-.8.8H18.33a.8.8,0,0,1-.8-.8V22.93h1.56a4.8,4.8,0,1,0,9.33,0H30Z"/><path class="cls-2" d="M43.35,9.67l-.74.74A23,23,0,0,1,10.41,42.61l-.74.74A24.06,24.06,0,0,0,43.35,9.67ZM24.07,1A22.91,22.91,0,0,1,37.13,5.11l.75-.75A24.06,24.06,0,0,0,4.36,37.87l.74-.74A23,23,0,0,1,24.07,1Z"/></g></g></svg>