<svg xmlns="http://www.w3.org/2000/svg" viewBox="0 0 48.17 48.17"><defs><style>.cls-1{fill:#fff;}</style></defs><title>footer_location</title><g id="Layer_2" data-name="Layer 2"><g id="Layer_1-2" data-name="Layer 1"><path class="cls-1" d="M24.59,14c.34.08.69.15,1,.25A6.88,6.88,0,0,1,30.32,23a26.43,26.43,0,0,1-3.1,6.35c-1,1.53-2.06,3-3.1,4.5-.09.13-.21.25-.33.4a1.58,1.58,0,0,1-.17-.16,44.47,44.47,0,0,1-5.89-9.71,7.65,7.65,0,0,1-.53-5.47,6.77,6.77,0,0,1,5.44-4.8c.11,0,.22-.06.33-.1Zm-4.17,6.86a3.36,3.36,0,1,0,3.35-3.35A3.36,3.36,0,0,0,20.42,20.83Z"/><path class="cls-1" d="M43.37,9.67l-.75.75A23,23,0,0,1,10.42,42.63l-.74.74a24.07,24.07,0,0,0,33.7-33.7ZM24.08,1A22.92,22.92,0,0,1,37.15,5.11l.75-.75A24.07,24.07,0,0,0,4.36,37.89l.75-.75A23,23,0,0,1,24.08,1Z"/></g></g></svg>