<svg xmlns="http://www.w3.org/2000/svg" viewBox="0 0 102.8 102.78"><defs><style>.cls-1{fill:#fff;}.cls-2{fill:#ff5a60;}</style></defs><title>footer_logo</title><g id="Layer_2" data-name="Layer 2"><g id="Layer_1-2" data-name="Layer 1"><path class="cls-1" d="M51.39,102.78A51.45,51.45,0,0,0,102.8,51.34C102.8,23,58.13,0,29.72,0S0,23,0,51.34A51.39,51.39,0,0,0,51.39,102.78Z"/><path class="cls-2" d="M75.23,41.79c1-1,3.59-3.74,2.6-4.69s-4.08-.91-5,.08a2.48,2.48,0,0,0,.05,3.5C73.84,41.63,74.27,42.77,75.23,41.79Z"/><path class="cls-2" d="M36.11,51.66l-.66,1c1.47,2.41,3.56,5.34,5,7.66.34.56,1.06.93.35-.23C39.4,57.84,36.39,52.17,36.11,51.66Z"/><path class="cls-2" d="M28.53,38.65a2,2,0,0,0,2-2c0-1.1-1.72-2-2.82-2s-1.15.89-1.15,2A2,2,0,0,0,28.53,38.65Z"/><path class="cls-2" d="M78,67.46c-.32-3-3.07-8.13-4.28-10.82-.86-1.91-3-6.4-3.81-8-.16-.33-1.14.39-1,.63.59,1.17,2.19,4.46,2.7,5.55,1.3,2.77,3.76,9,4.1,11.69a9.38,9.38,0,0,1-.7,5.3c-1.25,2.7-2.79,4.43-5.54,5.38a13.93,13.93,0,0,1-9.14.36,9.28,9.28,0,0,1-5.66-5.65,12.92,12.92,0,0,1,0-6.28,14.63,14.63,0,0,1,1.55-3.73A65,65,0,0,1,66.91,49c2.93-2.44,5.23-3.72,5.95-4.49.4-.43-3.16-4.76-3.6-4.29-.1.11-.21.67-.31.78-.33.35-1.71,2-2,2.39-.24-.41-6.71-14-11.75-16.5-6.61-3.32-11.69,6.72-14.73,11.73-.77,1.27-1.52,2.57-2.23,3.87a37.56,37.56,0,0,0-4.64-3.06c-2.69-.9-3.53,1.6-2.8,3.82.39,1.19,2.16,5.13,2.77,6.24.09.16.76-1.17.63-1.47-.49-1.16-2-4.62-2-5.77s.4-1.52,1.2-1.52c1.47,0,7,4.81,9.48,7.33a39.56,39.56,0,0,1,2.63,3c5.09,6.16-1.73,11.82-5.82,15.55A66.47,66.47,0,0,1,29.42,74.5c-2,1.23-3.2.71-2.6-.83h0C29,67.87,33.9,54.95,39.3,46.81c.15-.23-2.15-2.18-2.34-1.84-.65,1.14-5.58,11.9-7.16,15.68-1.79,4.29-3.52,8.62-5.11,13-.78,2.13-.2,4.71,2.42,4.92,2,.16,4.73-1.77,6.26-2.77a70.36,70.36,0,0,0,10.47-8.71c2-2,4.1-3.91,5.38-6.51,3.18-6.46-2.58-10.79-6.84-14.55l-1.72-1.53c1.18-1.86,2.43-3.78,3.8-5.9,1.54-2.39,4-6.06,6.17-8,3.49-3.09,6.12-1.22,8.68,2.55,2.44,3.59,4.72,7.31,6.84,11.11A108.79,108.79,0,0,0,54.41,60a15.38,15.38,0,0,0-2.12,7.07,13.21,13.21,0,0,0,1.85,7.13c3.53,6,12.67,7.06,18.5,4.23C76.84,76.43,78.43,71.79,78,67.46Z"/></g></g></svg>