<svg xmlns="http://www.w3.org/2000/svg" viewBox="0 0 48.15 48.14"><defs><style>.cls-1,.cls-2{fill:#fff;}.cls-1{fill-rule:evenodd;}</style></defs><title>footer_facebook</title><g id="Layer_2" data-name="Layer 2"><g id="Layer_1-2" data-name="Layer 1"><path class="cls-1" d="M26.64,17.91c.58,0,1.15,0,1.73,0h.24v-3c-.31,0-.63-.07-1-.09-.59,0-1.18-.06-1.77,0a4.35,4.35,0,0,0-2.5.77,3.75,3.75,0,0,0-1.5,2.5,8.75,8.75,0,0,0-.1,1.29c0,.67,0,1.34,0,2v.25H18.9V25h2.85v8.41h3.48V25h2.84l.44-3.36h-3.3s0-1.66,0-2.38C25.27,18.24,25.86,17.94,26.64,17.91Z"/><path class="cls-2" d="M43.35,9.67l-.74.74A23,23,0,0,1,10.41,42.61l-.74.74A24.06,24.06,0,0,0,43.35,9.67ZM24.07,1A22.91,22.91,0,0,1,37.13,5.11l.75-.75A24.06,24.06,0,0,0,4.36,37.87l.74-.74A23,23,0,0,1,24.07,1Z"/></g></g></svg>