<svg xmlns="http://www.w3.org/2000/svg" viewBox="0 0 48.17 48.17"><defs><style>.cls-1{fill:#fff;}</style></defs><title>footer_youtube</title><g id="Layer_2" data-name="Layer 2"><g id="Layer_1-2" data-name="Layer 1"><path class="cls-1" d="M21.95,13.58H20.76L20,16.67l-.83-3.09H17.88c.25.73.51,1.46.75,2.19a19.33,19.33,0,0,1,.72,2.49v3.18h1.18V18.27Zm3.15,6V17.5a2.29,2.29,0,0,0-.33-1.38,1.58,1.58,0,0,0-2.48,0A2.28,2.28,0,0,0,22,17.5v2.05a2.28,2.28,0,0,0,.33,1.38,1.58,1.58,0,0,0,2.48,0A2.29,2.29,0,0,0,25.1,19.55Zm-1.06.2c0,.54-.16.81-.51.81S23,20.3,23,19.75V17.29c0-.54.17-.81.51-.81s.51.27.51.81Zm5,1.7V15.59H28v4.48c-.23.33-.46.5-.67.5s-.23-.08-.25-.25a2.32,2.32,0,0,1,0-.41V15.59H26v4.64a3,3,0,0,0,.09.87.65.65,0,0,0,.68.43A1.7,1.7,0,0,0,28,20.81v.64Z"/><path class="cls-1" d="M25.7,27.36a.76.76,0,0,0-.52.26v3.54a.75.75,0,0,0,.52.26c.3,0,.46-.26.46-.78V28.15C26.15,27.63,26,27.36,25.7,27.36Z"/><path class="cls-1" d="M29.6,27.36c-.35,0-.53.27-.53.81v.53h1v-.53C30.12,27.63,29.94,27.36,29.6,27.36Z"/><path class="cls-1" d="M32.16,24.41a2.19,2.19,0,0,0-1.88-1.71,58.35,58.35,0,0,0-6.51-.24,58.32,58.32,0,0,0-6.51.24,2.19,2.19,0,0,0-1.88,1.71,18.64,18.64,0,0,0-.31,4.11,18.63,18.63,0,0,0,.3,4.11,2.2,2.2,0,0,0,1.88,1.71,58.8,58.8,0,0,0,6.51.24,58.8,58.8,0,0,0,6.51-.24,2.2,2.2,0,0,0,1.88-1.71,18.58,18.58,0,0,0,.3-4.11A18.64,18.64,0,0,0,32.16,24.41ZM20,25.6H18.77v6.69H17.61V25.6H16.37V24.5H20Zm3.18,6.69H22.16v-.63a1.68,1.68,0,0,1-1.2.71.65.65,0,0,1-.68-.43,3,3,0,0,1-.09-.86V26.48h1.05v4.27a3.32,3.32,0,0,0,0,.41c0,.16.11.25.25.25s.43-.16.67-.49V26.48h1.05Zm4-1.74a4.6,4.6,0,0,1-.11,1.17.83.83,0,0,1-.84.65,1.43,1.43,0,0,1-1.09-.64v.56H24.12V24.5h1.05V27a1.43,1.43,0,0,1,1.09-.63.83.83,0,0,1,.84.65,4.44,4.44,0,0,1,.11,1.16Zm4-1h-2.1v1c0,.54.17.8.54.8a.45.45,0,0,0,.47-.42,6.42,6.42,0,0,0,0-.71h1.07v.15c0,.34,0,.57,0,.68a1.49,1.49,0,0,1-.24.63,1.46,1.46,0,0,1-1.27.63,1.51,1.51,0,0,1-1.27-.59A2.25,2.25,0,0,1,28,30.41v-2A2.25,2.25,0,0,1,28.35,27a1.5,1.5,0,0,1,1.26-.59,1.46,1.46,0,0,1,1.24.59,2.29,2.29,0,0,1,.33,1.37Z"/><path class="cls-1" d="M43.37,9.67l-.75.75A23,23,0,0,1,10.42,42.63l-.74.74a24.07,24.07,0,0,0,33.7-33.7ZM24.08,1A22.92,22.92,0,0,1,37.15,5.11l.75-.75A24.07,24.07,0,0,0,4.36,37.89l.75-.75A23,23,0,0,1,24.08,1Z"/></g></g></svg>