<svg xmlns="http://www.w3.org/2000/svg" xmlns:xlink="http://www.w3.org/1999/xlink" viewBox="0 0 466.75 458.39"><defs><style>.cls-1{fill:#ff5a60;}.cls-2{opacity:0.78;}.cls-3{fill:url(#linear-gradient);}.cls-4{font-size:61px;fill:#fff;font-family:PFDinTextUniversal, PF Din Text Universal;letter-spacing:-0.01em;}.cls-5{letter-spacing:-0.05em;}.cls-6{letter-spacing:-0.01em;}</style><linearGradient id="linear-gradient" x1="40.55" y1="336.6" x2="297.13" y2="80.02" gradientUnits="userSpaceOnUse"><stop offset="0" stop-color="#fc0"/><stop offset="1" stop-color="#ff5a60"/></linearGradient></defs><title>foundation_header</title><g id="Layer_2" data-name="Layer 2"><g id="Layer_1-2" data-name="Layer 1"><path class="cls-1" d="M154.58,458.39c-17.94,0-35.69-5.67-53.09-10.19l-10.93-6C167,462.06,245.62,438.06,287.76,411,352,369.74,403.87,301.36,413.9,244.71,433,137.08,289.11,29.93,150.46.56L159.79,0C232.12,15.32,301.9,48.28,351.26,92.83c52.87,47.72,77,102,68,152.83-4.86,27.45-19.83,59.11-42.14,89.15a332.93,332.93,0,0,1-86.43,80.77c-28.83,18.51-58.88,31.21-89.33,37.75A229.08,229.08,0,0,1,154.58,458.39Z"/><g class="cls-2"><path class="cls-3" d="M397.94,215.17c0,76.26-89.74,206.66-211.42,197.09-76-6-174.62-75-183.6-150.75-9.57-80.66,3.71-222,49.59-239.85C167.72-23.09,397.94,131.78,397.94,215.17Z"/></g><text class="cls-4" transform="translate(30.92 192.44)">TRILLIUM <tspan x="0" y="73.2">FOUND</tspan><tspan class="cls-5" x="181.66" y="73.2">A</tspan><tspan class="cls-6" x="215.08" y="73.2">TION</tspan></text></g></g></svg>