<svg xmlns="http://www.w3.org/2000/svg" xmlns:xlink="http://www.w3.org/1999/xlink" viewBox="0 0 673.66 627.96"><defs><style>.cls-1{fill:#ff5a60;}.cls-13,.cls-2{fill:none;stroke:#fff;stroke-miterlimit:10;stroke-width:7px;}.cls-2{opacity:0.1;}.cls-3{fill:#ff9330;}.cls-4{fill:#ffb018;}.cls-5{fill:url(#linear-gradient);}.cls-6{fill:url(#linear-gradient-2);}.cls-7{fill:url(#linear-gradient-3);}.cls-8{fill:url(#linear-gradient-4);}.cls-9{fill:url(#linear-gradient-5);}.cls-10{fill:url(#linear-gradient-6);}.cls-11{fill:#fff;}.cls-12{fill:#ff7748;}.cls-13{opacity:0.05;}</style><linearGradient id="linear-gradient" x1="-27.55" y1="808.88" x2="790.31" y2="-8.99" gradientUnits="userSpaceOnUse"><stop offset="0" stop-color="#ff5a60"/><stop offset="0.23" stop-color="#fc5960"/><stop offset="0.37" stop-color="#f45860"/><stop offset="0.5" stop-color="#e55561"/><stop offset="0.61" stop-color="#d05161"/><stop offset="0.71" stop-color="#b54c62"/><stop offset="0.8" stop-color="#944663"/><stop offset="0.89" stop-color="#6c3e64"/><stop offset="0.98" stop-color="#403566"/><stop offset="1" stop-color="#336"/></linearGradient><linearGradient id="linear-gradient-2" x1="990.94" y1="548.75" x2="8.56" y2="548.75" gradientUnits="userSpaceOnUse"><stop offset="0" stop-color="#fc0"/><stop offset="1" stop-color="#ff5a60"/></linearGradient><linearGradient id="linear-gradient-3" x1="552.41" y1="362.9" x2="844.26" y2="71.05" gradientUnits="userSpaceOnUse"><stop offset="0" stop-color="#ff5a60"/><stop offset="1" stop-color="#336"/></linearGradient><linearGradient id="linear-gradient-4" x1="33.6" y1="660.6" x2="652.97" y2="41.22" xlink:href="#linear-gradient-2"/><linearGradient id="linear-gradient-5" x1="699.64" y1="92.69" x2="80.48" y2="92.69" xlink:href="#linear-gradient-3"/><linearGradient id="linear-gradient-6" x1="471.51" y1="482.21" x2="889.33" y2="64.39" gradientUnits="userSpaceOnUse"><stop offset="0" stop-color="#fc0"/><stop offset="0.06" stop-color="#ffb018"/><stop offset="0.12" stop-color="#ff952e"/><stop offset="0.2" stop-color="#ff7f41"/><stop offset="0.29" stop-color="#ff6e4f"/><stop offset="0.4" stop-color="#ff6359"/><stop offset="0.56" stop-color="#ff5c5e"/><stop offset="1" stop-color="#ff5a60"/></linearGradient></defs><title>foundation_rs</title><g id="Layer_2" data-name="Layer 2"><g id="Layer_1-2" data-name="Layer 1"><circle class="cls-1" cx="571.21" cy="102.31" r="84.01"/><circle class="cls-2" cx="571.21" cy="102.31" r="70.99"/><circle class="cls-3" cx="565.13" cy="390.41" r="84.01"/><circle class="cls-2" cx="565.13" cy="390.41" r="70.99"/><circle class="cls-4" cx="394.35" cy="530.44" r="84.01"/><circle class="cls-2" cx="394.35" cy="530.44" r="70.99"/><path class="cls-5" d="M395.35,627a97.64,97.64,0,0,1-73.18-162.27.73.73,0,0,1,1.09,1,96.18,96.18,0,1,0,77.24-32.38.72.72,0,0,1-.69-.76l0-1.18V339.34a.73.73,0,0,1,.69-.76,96.1,96.1,0,1,0-95.8-63.72.73.73,0,0,1-1.37.49A97.65,97.65,0,1,1,401.3,340v91.46l0,.5A97.64,97.64,0,0,1,395.35,627Z"/><path class="cls-6" d="M264.78,616.45H1.63a.73.73,0,0,1,0-1.45H264.78a9.31,9.31,0,0,0,9.3-9.3V481.77a.73.73,0,0,1,1.45,0V605.7A10.77,10.77,0,0,1,264.78,616.45Z"/><path class="cls-7" d="M672.93,392.15a.73.73,0,0,1-.73-.73,109.87,109.87,0,0,0-168-93.22.73.73,0,0,1-1-.11.74.74,0,0,1-.15-.5v-30.9a10.77,10.77,0,0,1,10.76-10.76h57.9a9.31,9.31,0,0,0,9.3-9.3V202.12a.73.73,0,1,1,1.45,0v44.51a10.77,10.77,0,0,1-10.76,10.76h-57.9a9.31,9.31,0,0,0-9.3,9.3v29.65a111.33,111.33,0,0,1,169.2,95.08A.73.73,0,0,1,672.93,392.15Z"/><path class="cls-8" d="M1.63,628a1.63,1.63,0,0,1,0-3.26H274.2a10,10,0,0,0,10-10V529.41a111.27,111.27,0,0,1,104.31-111V353.54l-1.09-.12a111.17,111.17,0,0,1,8-222.05c60.6,0,110.28,49.05,111.15,109.53h51.95a8.41,8.41,0,0,0,8.4-8.4V204.69c-24.37-.47-49.19-11.35-68.24-29.95-20.34-19.86-31.55-45.57-31.55-72.39a102.35,102.35,0,1,1,204.71,0,1.63,1.63,0,0,1-3.26,0,99.09,99.09,0,1,0-198.18,0c0,51.76,46.68,99,98,99.09h.17a1.64,1.64,0,0,1,1.65,1.63v29.44a11.67,11.67,0,0,1-11.66,11.66H504.88a1.63,1.63,0,0,1-1.63-1.63,107.9,107.9,0,0,0-215.81,0c0,56.41,44,103.69,100.23,107.64l2.61.28a1.63,1.63,0,0,1,1.46,1.62v67.81a1.64,1.64,0,0,1-1.42,1.62l-1.53.21A108.05,108.05,0,0,0,287.45,529.41v85.31A13.26,13.26,0,0,1,274.2,628Z"/><path class="cls-9" d="M627.65,173.86a.79.79,0,0,1-.51-1.4,90.13,90.13,0,1,0-147.86-69.23.79.79,0,0,1-1.58,0,91.72,91.72,0,1,1,150.46,70.44A.79.79,0,0,1,627.65,173.86Z"/><path class="cls-10" d="M562.35,490.22A99.27,99.27,0,0,1,469.79,426a1.63,1.63,0,0,1,1-2.1,1.63,1.63,0,0,1,2.1,1,95.56,95.56,0,1,0,9-84.89,1.63,1.63,0,1,1-2.75-1.76,98.81,98.81,0,1,1,83.28,152Z"/><path class="cls-1" d="M63.84,497H56.32v22.79H51.63V497H44.15v-4.19H63.84Z"/><path class="cls-1" d="M86.71,519.75H82.05V508.2H71.67v11.55H67v-27h4.69v11.32H82.05V492.77h4.65Z"/><path class="cls-1" d="M110.43,519.75H92.37v-27h18.06V497H97.06v7.05h11.39v4.11H97.06v7.29h13.37Z"/><path class="cls-1" d="M133.88,519.75h-5.27l-4.69-11.12h-5v11.12h-4.69v-27H125.7a8.41,8.41,0,0,1,5.89,2.13,7.07,7.07,0,0,1,2.36,5.62,7.68,7.68,0,0,1-5.39,7.4ZM125,496.92h-6v7.52h5.89c2.6,0,4.34-1.43,4.34-3.91S127.56,496.92,125,496.92Z"/><path class="cls-1" d="M156.52,519.75H138.46v-27h18.06V497H143.15v7.05h11.39v4.11H143.15v7.29h13.37Z"/><path class="cls-1" d="M191.52,519.75h-5l-2.13-6h-10l-2.17,6h-4.92l10.19-27h3.8Zm-8.49-10-1.78-5.46-1.78-5.54h-.12l-1.74,5.43-1.82,5.58Z"/><path class="cls-1" d="M214.12,519.75h-5.27l-4.69-11.12h-5v11.12h-4.69v-27h11.47a8.41,8.41,0,0,1,5.89,2.13,7.07,7.07,0,0,1,2.36,5.62,7.68,7.68,0,0,1-5.39,7.4Zm-8.91-22.83h-6v7.52h5.89c2.6,0,4.34-1.43,4.34-3.91S207.8,496.92,205.21,496.92Z"/><path class="cls-1" d="M236.76,519.75H218.7v-27h18.06V497H223.39v7.05h11.39v4.11H223.39v7.29h13.37Z"/><path class="cls-1" d="M72.07,533H53.87v9.92H69.38v5.54H53.87V563.9H47.48V527.17H72.07Z"/><path class="cls-1" d="M98.4,530.81a14,14,0,0,1,3.75,10v9.39c0,4.27-1.27,7.65-3.75,10.18s-5.8,3.8-10,3.8c-4.38,0-7.76-1.32-10.13-4a14.51,14.51,0,0,1-3.54-10v-9.39a14.38,14.38,0,0,1,3.54-9.92c2.37-2.69,5.75-4,10.13-4A13.19,13.19,0,0,1,98.4,530.81ZM83,535.19a8.18,8.18,0,0,0-1.85,5.33v9.87A8.81,8.81,0,0,0,83,556a6.58,6.58,0,0,0,5.38,2.27c4.38,0,7.23-3.27,7.23-7.86v-9.87c0-4.27-2.8-7.6-7.23-7.6A6.58,6.58,0,0,0,83,535.19Z"/><path class="cls-1" d="M135.12,550.86a12.76,12.76,0,0,1-3.85,9.66,13.82,13.82,0,0,1-9.87,3.64,13.28,13.28,0,0,1-9.92-3.8,13.5,13.5,0,0,1-3.75-9.76V527.17h6.33v23c0,4.64,2.9,8.07,7.39,8.07s7.23-2.8,7.23-7.81V527.17h6.44Z"/><path class="cls-1" d="M168.84,563.9h-7.18l-6.38-15.14h-6.81V563.9h-6.38V527.17H157.7a11.45,11.45,0,0,1,8,2.9,9.62,9.62,0,0,1,3.22,7.65,10.45,10.45,0,0,1-7.33,10.08ZM156.7,532.82h-8.23v10.24h8c3.54,0,5.91-2,5.91-5.33S160.23,532.82,156.7,532.82Z"/><path class="cls-1" d="M215.11,563.9h-7.18l-6.38-15.14h-6.81V563.9h-6.38V527.17H204a11.45,11.45,0,0,1,8,2.9,9.62,9.62,0,0,1,3.22,7.65,10.45,10.45,0,0,1-7.33,10.08ZM203,532.82h-8.23v10.24h8c3.54,0,5.91-2,5.91-5.33S206.51,532.82,203,532.82Z"/><path class="cls-1" d="M241.64,535.56a16.08,16.08,0,0,0-9.08-2.74c-4.22,0-6.23,1.85-6.23,4.64a3.38,3.38,0,0,0,1.9,3.17,29.23,29.23,0,0,0,7.07,1.85,17,17,0,0,1,7.33,2.8c2.27,1.48,3.48,4.12,3.48,7.76a9.66,9.66,0,0,1-4,8.18,15.75,15.75,0,0,1-9.81,3q-8.87,0-14.56-5.07l3.85-5a15.81,15.81,0,0,0,11,4.06c4.17,0,6.81-1.79,6.81-5,0-2.9-2.06-4.33-6.7-5a26.92,26.92,0,0,1-7.23-1.74c-3.43-1.48-5.33-3.91-5.49-8.81a9.45,9.45,0,0,1,3.64-8,14,14,0,0,1,8.81-2.85c5,0,9.13,1.16,12.35,3.43Z"/><path class="cls-1" d="M53.36,597.28H49.42V574.79h3.94Z"/><path class="cls-1" d="M75.75,597.28H72.13l-6.95-10.47-3.13-5.14-.1,0v15.57H58V574.79h3.62l6.3,9.56,3.81,6.07.06-.06V574.79h3.91Z"/><path class="cls-1" d="M88.54,574.79h8.17q5.67,0,7.66,4.17.87,1.79.87,6.69c0,3.52-.26,5.91-.81,7.17-1.29,3-4,4.46-8.27,4.46H88.54Zm3.91,3.55v15.38h3.84c3.62,0,5-2,5-5.59v-4.2c0-3.91-1.71-5.59-5.1-5.59Z"/><path class="cls-1" d="M113.12,597.28h-3.94V574.79h3.94Z"/><path class="cls-1" d="M130.24,579.93a9.85,9.85,0,0,0-5.56-1.68c-2.58,0-3.81,1.13-3.81,2.84A2.07,2.07,0,0,0,122,583a18,18,0,0,0,4.33,1.13,10.37,10.37,0,0,1,4.49,1.71c1.39.91,2.13,2.52,2.13,4.75a5.91,5.91,0,0,1-2.46,5,9.64,9.64,0,0,1-6,1.84,12.92,12.92,0,0,1-8.92-3.1l2.36-3a9.68,9.68,0,0,0,6.75,2.49c2.55,0,4.17-1.1,4.17-3.07,0-1.78-1.26-2.65-4.1-3.07a16.44,16.44,0,0,1-4.43-1.07c-2.1-.9-3.26-2.39-3.36-5.39a5.79,5.79,0,0,1,2.23-4.88,8.58,8.58,0,0,1,5.39-1.74,12.83,12.83,0,0,1,7.56,2.1Z"/><path class="cls-1" d="M151.63,592.24c-1.13,3.26-4,5.23-7.88,5.23a8,8,0,0,1-6.23-2.39,8.9,8.9,0,0,1-2.13-6.17v-5.75a8.8,8.8,0,0,1,2.16-6.07,8.71,8.71,0,0,1,14.05,2.78l-3.68,1.45a4.12,4.12,0,0,0-4.17-3,4,4,0,0,0-3.29,1.39,5,5,0,0,0-1.13,3.26v6a5.39,5.39,0,0,0,1.13,3.42,4,4,0,0,0,3.29,1.39,4.15,4.15,0,0,0,4.17-3.1Z"/><path class="cls-1" d="M158.64,597.28H154.7V574.79h3.94Z"/><path class="cls-1" d="M177.63,586.65a7.31,7.31,0,0,1-5.26,2h-5.14v8.63h-3.91V574.79h8.75a8.18,8.18,0,0,1,5.49,1.84,6.43,6.43,0,0,1,2.16,5.2A6.54,6.54,0,0,1,177.63,586.65Zm-5.65-8.3h-4.75v6.75h4.88a3.35,3.35,0,0,0,3.62-3.36C175.72,579.51,174.3,578.35,172,578.35Z"/><path class="cls-1" d="M197.46,597.28H182.41V574.79h3.91v18.93h11.14Z"/><path class="cls-1" d="M204.6,597.28h-3.94V574.79h3.94Z"/><path class="cls-1" d="M227,597.28h-3.62l-6.95-10.47-3.13-5.14-.1,0v15.57h-3.91V574.79h3.62l6.3,9.56,3.81,6.07.06-.06V574.79H227Z"/><path class="cls-1" d="M246.69,597.28H231.64V574.79h15.05v3.55H235.55v5.88H245v3.42h-9.5v6.07h11.14Z"/><path class="cls-11" d="M527.53,112.47h-1.72L521,102.54h-6.18v9.93h-1.44V91.08h8.27a6.31,6.31,0,0,1,4.39,1.51,5.07,5.07,0,0,1,1.72,4,5.77,5.77,0,0,1-5.19,5.84Zm-6.21-20.13h-6.45v8.91h6.36c3,0,5-1.69,5-4.64S524.15,92.34,521.32,92.34Z"/><path class="cls-11" d="M544.34,112.47h-13V91.08h13V92.4H532.81V101h9.83v1.29h-9.83v8.88h11.52Z"/><path class="cls-11" d="M553.22,112.65a12.27,12.27,0,0,1-7.41-2.3l.86-1.17a11.1,11.1,0,0,0,6.64,2.12c3.44,0,5.84-1.57,5.84-4.49a3.92,3.92,0,0,0-1.26-3,4.63,4.63,0,0,0-1.35-.83,12.37,12.37,0,0,0-3.13-.89,15.63,15.63,0,0,1-3.63-1c-1.78-.74-2.7-2-2.83-4.46,0-3.53,2.64-5.78,6.7-5.78a11.21,11.21,0,0,1,6.12,1.63L559,93.75a10.83,10.83,0,0,0-5.41-1.51c-3,0-5.19,1.51-5.19,4.42a3.56,3.56,0,0,0,1.08,2.61,4.26,4.26,0,0,0,1.26.71,14.78,14.78,0,0,0,1.41.46l1.66.34c.12,0,.18.06.31.06a13.45,13.45,0,0,1,3.66,1.14c1.84.8,2.74,2.21,2.86,4.86C560.63,110.41,557.77,112.65,553.22,112.65Z"/><path class="cls-11" d="M576.51,101.5a6.07,6.07,0,0,1-4.67,1.81h-6.48v9.16h-1.44V91.08h7.62a7.36,7.36,0,0,1,4.73,1.54,5.62,5.62,0,0,1,1.91,4.67A6.14,6.14,0,0,1,576.51,101.5Zm-5-9.1h-6.18V102h6.3a4.73,4.73,0,0,0,3.72-1.38,5,5,0,0,0,1.26-3.38C576.64,94.09,574.51,92.4,571.53,92.4Z"/><path class="cls-11" d="M592.64,93a7.74,7.74,0,0,1,2,5.5v6.36a8,8,0,0,1-2,5.68,7.06,7.06,0,0,1-5.35,2.09,6.87,6.87,0,0,1-5.53-2.21,8.23,8.23,0,0,1-1.87-5.56V98.55a8,8,0,0,1,1.91-5.44A7.91,7.91,0,0,1,592.64,93Zm-9.74,1a6.76,6.76,0,0,0-1.54,4.52V105a7,7,0,0,0,1.54,4.55,5.49,5.49,0,0,0,4.43,1.84,5.35,5.35,0,0,0,4.24-1.81,6.9,6.9,0,0,0,1.57-4.7V98.61a6.63,6.63,0,0,0-1.57-4.52,5.35,5.35,0,0,0-4.24-1.81A5.56,5.56,0,0,0,582.9,94.09Z"/><path class="cls-11" d="M612.56,112.47l-8-12L600,93.51l0,0v18.93h-1.45V91.08H600L607.92,103l4.64,7.1s0,0,0,0v-19H614v21.39Z"/><path class="cls-11" d="M618.86,91.08h6.88c3.35,0,5.62,1.29,6.88,3.87.52,1.14.77,3.29.77,6.42,0,3.47-.25,5.78-.74,7-1.32,3-3.69,4.12-7.34,4.12h-6.45Zm13.09,8.57c0-5.19-2.27-7.25-6.42-7.25H620.3v18.75h5.22c4.27,0,6.42-2.37,6.42-7.1Z"/><circle class="cls-12" cx="395.35" cy="242.54" r="83.22"/><circle class="cls-13" cx="395.35" cy="242.54" r="68.67"/><path class="cls-11" d="M363.56,255h-1.72L357.08,245H350.9V255h-1.44V233.57h8.27a6.31,6.31,0,0,1,4.39,1.51,5.07,5.07,0,0,1,1.72,4,5.77,5.77,0,0,1-5.19,5.84Zm-6.21-20.13H350.9v8.91h6.36c3,0,5-1.69,5-4.64S360.18,234.83,357.35,234.83Z"/><path class="cls-11" d="M380.37,255h-13V233.57h13v1.32H368.85v8.57h9.83v1.29h-9.83v8.88h11.52Z"/><path class="cls-11" d="M389.93,255h-1.29l-7-21.39h1.48L386.45,244l2.8,8.76h.09l2.8-8.76,3.32-10.42H397Z"/><path class="cls-11" d="M401.39,255H400V233.57h1.41Z"/><path class="cls-11" d="M419.33,255h-13V233.57h13v1.32H407.81v8.57h9.83v1.29h-9.83v8.88h11.52Z"/><path class="cls-11" d="M444.44,233.57,439.19,255h-1.32l-3.23-11.55-2.06-7.31h0L427.35,255H426l-5.22-21.39h1.48L425,245.19l1.72,7.34h.06l2-7.34L432,233.57h1.23l3.26,11.68,2,7.28h0l1.66-7.25,2.73-11.71Z"/><path class="cls-11" d="M527.93,402h-1.72L521.45,392h-6.18V402h-1.44V380.56h8.27a6.31,6.31,0,0,1,4.39,1.51,5.07,5.07,0,0,1,1.72,4,5.77,5.77,0,0,1-5.19,5.84Zm-6.21-20.13h-6.45v8.91h6.36c3,0,5-1.69,5-4.64S524.55,381.82,521.73,381.82Z"/><path class="cls-11" d="M544.74,402h-13V380.56h13v1.32H533.22v8.57h9.83v1.29h-9.83v8.88h11.52Z"/><path class="cls-11" d="M561,381.88H549.47v8.64h9.8v1.26h-9.8V402H548V380.56h13Z"/><path class="cls-11" d="M576.55,402h-13V380.56H565v20.07h11.55Z"/><path class="cls-11" d="M592.77,402h-13V380.56h13v1.32H581.25v8.57h9.83v1.29h-9.83v8.88h11.52Z"/><path class="cls-11" d="M609.3,397.83a6.89,6.89,0,0,1-6.7,4.33,6.81,6.81,0,0,1-5.5-2.21,8.24,8.24,0,0,1-1.87-5.56V388a8,8,0,0,1,1.91-5.44,7.65,7.65,0,0,1,12.08,1.81l-1.29.65a6.07,6.07,0,0,0-9.74-1.51,6.84,6.84,0,0,0-1.54,4.55v6.33a7,7,0,0,0,1.54,4.58,6,6,0,0,0,9.83-1.75Z"/><path class="cls-11" d="M624.3,381.82h-6.36V402h-1.41V381.82h-6.45v-1.26H624.3Z"/><path class="cls-11" d="M370,519.75h-1.72l-4.76-9.93h-6.18v9.93h-1.44V498.36h8.27a6.31,6.31,0,0,1,4.39,1.51,5.07,5.07,0,0,1,1.72,4,5.77,5.77,0,0,1-5.19,5.84Zm-6.21-20.13h-6.45v8.91h6.36c3,0,5-1.69,5-4.64S366.63,499.62,363.8,499.62Z"/><path class="cls-11" d="M375.39,519.75H374V498.36h1.41Z"/><path class="cls-11" d="M391.18,516.92a6.14,6.14,0,0,0,1.66-4.3v-2.46H388v-1.23h6.27v3.41a7.72,7.72,0,0,1-2,5.47,7,7,0,0,1-5.38,2.15,6.81,6.81,0,0,1-5.5-2.21,8.24,8.24,0,0,1-1.87-5.56v-6.36a8,8,0,0,1,1.91-5.44,7.65,7.65,0,0,1,12.08,1.81l-.68.34-.61.31a6.07,6.07,0,0,0-9.74-1.51,6.84,6.84,0,0,0-1.54,4.55v6.39a7,7,0,0,0,1.54,4.58,6.16,6.16,0,0,0,8.73.06Z"/><path class="cls-11" d="M412.69,519.75h-1.45v-10.2H399.76v10.2h-1.41V498.36h1.41v9.9h11.49v-9.9h1.45Z"/><path class="cls-11" d="M429.59,499.62h-6.36v20.13h-1.41V499.62h-6.45v-1.26h14.23Z"/><path class="cls-11" d="M341.42,535.16H336v17h-1.2v-17h-5.46v-1.07h12Z"/><path class="cls-11" d="M355.8,552.19h-1.22v-8.63h-9.72v8.63h-1.2v-18.1h1.2v8.37h9.72v-8.37h1.22Z"/><path class="cls-11" d="M370.88,552.19h-11v-18.1h11v1.12h-9.75v7.25h8.32v1.09h-8.32v7.51h9.75Z"/><path class="cls-11" d="M397.87,534.09l-4.45,18.1h-1.12l-2.73-9.78-1.74-6.19h0l-4.39,16h-1.14l-4.42-18.1h1.25l2.31,9.83,1.46,6.21h.05l1.69-6.21,2.73-9.83h1l2.76,9.88,1.71,6.16h0l1.4-6.14,2.31-9.91Z"/><path class="cls-11" d="M412.38,552.19h-1.46l-4-8.4h-5.23v8.4h-1.22v-18.1h7a5.34,5.34,0,0,1,3.72,1.27,4.29,4.29,0,0,1,1.46,3.41,4.88,4.88,0,0,1-4.39,4.94Zm-5.25-17h-5.46v7.54H407c2.5,0,4.26-1.43,4.26-3.93S409.52,535.16,407.13,535.16Z"/><path class="cls-11" d="M425.54,535.75a6.55,6.55,0,0,1,1.66,4.65v5.38a6.77,6.77,0,0,1-1.66,4.81,6,6,0,0,1-4.53,1.77,5.81,5.81,0,0,1-4.68-1.87,7,7,0,0,1-1.59-4.71v-5.38a6.76,6.76,0,0,1,1.61-4.6,6.7,6.7,0,0,1,9.18-.05Zm-8.24.88a5.72,5.72,0,0,0-1.3,3.82v5.38a5.94,5.94,0,0,0,1.3,3.85,4.65,4.65,0,0,0,3.74,1.56,4.53,4.53,0,0,0,3.59-1.53,5.84,5.84,0,0,0,1.33-4v-5.28a5.61,5.61,0,0,0-1.33-3.82A4.53,4.53,0,0,0,421,535.1,4.71,4.71,0,0,0,417.29,536.64Z"/><path class="cls-11" d="M442.38,552.19,435.6,542l-3.85-5.85,0,0v16H430.5v-18.1h1.25l6.71,10.09,3.93,6s0,0,0,0V534.09h1.2v18.1Z"/><path class="cls-11" d="M456.86,549.79a5.19,5.19,0,0,0,1.4-3.64v-2.08h-4.08v-1h5.3v2.89a6.53,6.53,0,0,1-1.72,4.63,5.87,5.87,0,0,1-4.55,1.82,5.76,5.76,0,0,1-4.65-1.87,7,7,0,0,1-1.59-4.71v-5.38a6.76,6.76,0,0,1,1.61-4.6,6.48,6.48,0,0,1,10.22,1.53l-.57.29-.52.26a5.14,5.14,0,0,0-8.24-1.27,5.78,5.78,0,0,0-1.3,3.85v5.41a5.9,5.9,0,0,0,1.3,3.87,5.21,5.21,0,0,0,7.38.05Z"/></g></g></svg>