<svg xmlns="http://www.w3.org/2000/svg" xmlns:xlink="http://www.w3.org/1999/xlink" viewBox="0 0 421.13 458.39"><defs><style>.cls-1{fill:#ff5a60;}.cls-2{opacity:0.78;}.cls-3{fill:url(#linear-gradient);}.cls-4{fill:#fff;}</style><linearGradient id="linear-gradient" x1="40.55" y1="336.6" x2="297.13" y2="80.02" gradientUnits="userSpaceOnUse"><stop offset="0" stop-color="#fc0"/><stop offset="1" stop-color="#ff5a60"/></linearGradient></defs><title>foundation_title</title><g id="Layer_2" data-name="Layer 2"><g id="Layer_1-2" data-name="Layer 1"><path class="cls-1" d="M154.58,458.39c-17.94,0-35.69-5.67-53.09-10.19l-10.93-6C167,462.06,245.62,438.06,287.76,411,352,369.74,403.87,301.36,413.9,244.71,433,137.08,289.11,29.93,150.46.56L159.79,0C232.12,15.32,301.9,48.28,351.26,92.83c52.87,47.72,77,102,68,152.83-4.86,27.45-19.83,59.11-42.14,89.15a332.93,332.93,0,0,1-86.43,80.77c-28.83,18.51-58.88,31.21-89.33,37.75A229.08,229.08,0,0,1,154.58,458.39Z"/><g class="cls-2"><path class="cls-3" d="M397.94,215.17c0,76.26-89.74,206.66-211.42,197.09-76-6-174.62-75-183.6-150.75-9.57-80.66,3.71-222,49.59-239.85C167.72-23.09,397.94,131.78,397.94,215.17Z"/></g><path class="cls-4" d="M60.51,154.68H48.43v37.76H43.06V154.68H31V150H60.51Z"/><path class="cls-4" d="M93.63,192.44h-6l-8.11-18.67H70v18.67H64.6V150H81.92a12.44,12.44,0,0,1,8.72,3.23,10.71,10.71,0,0,1,3.54,8.36c0,5.67-3.6,9.94-9.15,11.65ZM80.95,154.68H70v14.4H80.7c4.82,0,8.11-2.81,8.11-7.5S85.77,154.68,80.95,154.68Z"/><path class="cls-4" d="M105.83,192.44h-5.37V150h5.37Z"/><path class="cls-4" d="M141.4,192.44H114.56V150h5.37V187.5H141.4Z"/><path class="cls-4" d="M173.91,192.44H147.07V150h5.37V187.5h21.47Z"/><path class="cls-4" d="M184.95,192.44h-5.37V150h5.37Z"/><path class="cls-4" d="M217.65,150H223v27.09c0,4.82-1.4,8.6-4.15,11.47s-6.41,4.27-11,4.27c-4.82,0-8.54-1.46-11.16-4.45a16.5,16.5,0,0,1-3.9-11.29V150h5.31v26.66a12.14,12.14,0,0,0,2.56,7.81,8.81,8.81,0,0,0,7.26,3.23c6,0,9.7-4,9.7-11Z"/><path class="cls-4" d="M267.79,192.44h-5.37V162.18l-.18.12-3.29,8-7.32,15.86h-4.7l-7.44-16.35-3.17-7.63-.18.12v30.14h-5.37V150h5.37l9,19.83,4.21,9.88h.18l4.21-9.82L262.54,150h5.25Z"/><path class="cls-4" d="M62.4,228.12H40.93v14h18.3v4.7H40.93v18.79H35.56V223.18H62.4Z"/><path class="cls-4" d="M91.38,227.27a15.89,15.89,0,0,1,4.15,11.29v11.71c0,4.82-1.4,8.6-4.15,11.47S85,266,80.4,266c-4.82,0-8.54-1.46-11.16-4.45a16.5,16.5,0,0,1-3.9-11.29V238.56a16.29,16.29,0,0,1,3.9-11.16c2.62-3,6.34-4.51,11.16-4.51A14.34,14.34,0,0,1,91.38,227.27ZM73.2,231.11a11.71,11.71,0,0,0-2.56,7.57V250a12.14,12.14,0,0,0,2.56,7.81,9.62,9.62,0,0,0,14.27.12A11.77,11.77,0,0,0,90.16,250V238.68a11.19,11.19,0,0,0-2.68-7.63,8.74,8.74,0,0,0-7-3.11A8.77,8.77,0,0,0,73.2,231.11Z"/><path class="cls-4" d="M126.57,223.18h5.37v27.09c0,4.82-1.4,8.6-4.15,11.47s-6.41,4.27-11,4.27c-4.82,0-8.54-1.46-11.16-4.45a16.5,16.5,0,0,1-3.9-11.29V223.18h5.31v26.66a12.14,12.14,0,0,0,2.56,7.81,8.81,8.81,0,0,0,7.26,3.23c6,0,9.7-4,9.7-11Z"/><path class="cls-4" d="M171.59,265.64h-5.25l-15.5-23.91-5.61-9.27-.18.06v33.13h-5.37V223.18H145l14.95,23.12,6.16,10.19.18-.12V223.18h5.31Z"/><path class="cls-4" d="M180.13,223.18H194q10.71,0,14.46,7.87,1.65,3.39,1.65,12.63c0,6.65-.49,11.16-1.52,13.54-2.44,5.61-7.63,8.42-15.62,8.42H180.13Zm24.65,17.33c0-8.24-3.66-12.38-11-12.38h-8.3V260.7h8.3q11,0,11-12.08Z"/><path class="cls-4" d="M248.7,265.64H243l-3.42-9.76H222l-3.42,9.76h-5.61l15.56-42.46h4.64Zm-10.61-14.4L234,239.35l-3.11-9h-.18l-3,8.79-4.21,12.14Z"/><path class="cls-4" d="M275.6,227.88H263.52v37.76h-5.37V227.88H246.07v-4.7H275.6Z"/><path class="cls-4" d="M285.05,265.64h-5.37V223.18h5.37Z"/><path class="cls-4" d="M318.24,227.27a15.89,15.89,0,0,1,4.15,11.29v11.71c0,4.82-1.4,8.6-4.15,11.47s-6.41,4.27-11,4.27c-4.82,0-8.54-1.46-11.16-4.45a16.5,16.5,0,0,1-3.9-11.29V238.56a16.29,16.29,0,0,1,3.9-11.16c2.62-3,6.34-4.51,11.16-4.51A14.34,14.34,0,0,1,318.24,227.27Zm-18.18,3.84a11.71,11.71,0,0,0-2.56,7.57V250a12.14,12.14,0,0,0,2.56,7.81,9.62,9.62,0,0,0,14.28.12A11.78,11.78,0,0,0,317,250V238.68a11.19,11.19,0,0,0-2.68-7.63,9.68,9.68,0,0,0-14.28.06Z"/><path class="cls-4" d="M361.36,265.64h-5.25l-15.5-23.91L335,232.46l-.18.06v33.13h-5.37V223.18h5.31l14.95,23.12,6.16,10.19.18-.12V223.18h5.31Z"/></g></g></svg>