<svg xmlns="http://www.w3.org/2000/svg" viewBox="0 0 42.38 26.51"><defs><style>.cls-1{fill:#4d4d4d;}</style></defs><title>header_menu</title><g id="Layer_2" data-name="Layer 2"><g id="Layer_1-2" data-name="Layer 1"><path class="cls-1" d="M21.15,4.92H2.6A2.44,2.44,0,0,1,.31,1.25,2.2,2.2,0,0,1,2.51,0c2.52,0,5,0,7.55,0H39.71c1.71,0,2.58.79,2.61,2.31,0,1.76-.77,2.6-2.52,2.6Z"/><path class="cls-1" d="M21.24,10.82H40a2.13,2.13,0,0,1,2.18,1.43,2.55,2.55,0,0,1-.58,2.88,2.82,2.82,0,0,1-1.56.57q-18.82,0-37.64,0A2.2,2.2,0,0,1,.07,13.23a2.2,2.2,0,0,1,2.41-2.41Z"/><path class="cls-1" d="M21.31,21.62H39.75c1.74,0,2.57.79,2.57,2.44s-.82,2.46-2.55,2.46H2.67c-1.71,0-2.6-.84-2.6-2.44s.87-2.45,2.58-2.45Z"/></g></g></svg>