<svg xmlns="http://www.w3.org/2000/svg" xmlns:xlink="http://www.w3.org/1999/xlink" viewBox="0 0 255.81 278.44"><defs><style>.cls-1{fill:none;}.cls-2{clip-path:url(#clip-path);}.cls-3{fill:#ff5a60;}.cls-4{fill:url(#linear-gradient);}.cls-5{fill:#fff;}</style><clipPath id="clip-path"><rect class="cls-1" x="32.79" y="23.44" width="230" height="285"/></clipPath><linearGradient id="linear-gradient" x1="24.63" y1="204.47" x2="180.49" y2="48.61" gradientUnits="userSpaceOnUse"><stop offset="0" stop-color="#fc0"/><stop offset="1" stop-color="#ff5a60"/></linearGradient></defs><title>home_logo</title><g id="Layer_2" data-name="Layer 2"><g id="Layer_1-2" data-name="Layer 1"><g class="cls-2"><path class="cls-3" d="M93.9,278.44c-10.9,0-21.68-3.45-32.25-6.19L55,268.62c46.45,12,94.18-2.53,119.79-19,39-25.06,70.53-66.59,76.62-101C263,83.27,175.62,18.18,91.39.34L97.06,0C141,9.3,183.39,29.33,213.37,56.39c32.12,29,46.79,62,41.32,92.84-3,16.68-12,35.91-25.6,54.16a202.23,202.23,0,0,1-52.5,49.06c-17.51,11.24-35.77,19-54.26,22.93A139.15,139.15,0,0,1,93.9,278.44Z"/><path class="cls-4" d="M241.72,130.7c0,46.32-54.51,125.53-128.42,119.72C67.12,246.79,7.23,204.85,1.77,158.85-4,109.86,4,24,31.9,13.16,101.88-14,241.72,80,241.72,130.7Z"/></g><path class="cls-5" d="M166.46,92.2c2.08-2.14,7.82-8.15,5.68-10.22s-8.89-2-11,.16a5.4,5.4,0,0,0,.11,7.64C163.43,91.85,164.38,94.34,166.46,92.2Z"/><path class="cls-5" d="M86.89,110.22l-1.12,1.87c3.61,5,7.52,9.66,11,14.47.84,1.16,2.46,1.84.73-.56-3.38-4.71-5.46-7.88-8.6-12.76C88.28,112.3,87.6,111.28,86.89,110.22Z"/><path class="cls-5" d="M72.64,88.55A4.33,4.33,0,0,0,77,84.23c0-2.39-3.76-4.32-6.15-4.32s-2.5,1.93-2.5,4.32A4.32,4.32,0,0,0,72.64,88.55Z"/><path class="cls-5" d="M175.36,145.09c-.7-6.63-6.4-17.72-9-23.59-2.27-5-9.13-18.78-9.13-18.78a11.09,11.09,0,0,0-2.22,1.41s5.37,10.65,6.71,13.52c2.83,6,9.22,19.51,10,25.33a27.64,27.64,0,0,1-1.52,11.85c-2,6.18-6.66,10.39-12.67,12.46a31.72,31.72,0,0,1-20.37.19c-.46-.17-9.51-3.49-12.33-12.6-1.33-4.3-1-9.35-.05-13.7a31.87,31.87,0,0,1,3.38-8.13c7.24-11.3,17.28-23,23.47-28.1,6.39-5.32,9.07-5.18,10.64-6.85.87-.93-6.89-10.37-7.85-9.34-.23.24-.45,1.46-.67,1.69q-1.06,1.14-2.1,2.29c-.52-.9-14.63-30.45-25.6-36-14.42-7.24-25.48,14.64-32.11,25.56-1.69,2.77-3.31,5.59-4.86,8.44a24.31,24.31,0,0,0-5.88-3c-5.87-2-7.7,3.49-6.1,8.32a48.07,48.07,0,0,0,4.47,9.52c-3.83,8.11-7.36,16.38-10.8,24.61C66.75,139.59,63,149,59.52,158.54c-1.69,4.64-.44,10.27,5.27,10.72,4.41.34,10.32-3.85,13.63-6a153.7,153.7,0,0,0,22.81-19c4.46-4.36,8.93-8.53,11.72-14.19,6.92-14.09-5.61-23.52-14.9-31.71-1.24-1.09-2.48-2.23-3.74-3.33,2.57-4.05,5.29-8.24,8.27-12.85C106,76.94,111.38,68.93,116,64.8c7.62-6.75,13.34-2.65,18.92,5.56,5.32,7.83,10.29,15.93,14.92,24.22a236.92,236.92,0,0,0-25.59,34.3,33.57,33.57,0,0,0-4.62,15.41,28.8,28.8,0,0,0,4,15.55c7.7,13.11,27.46,15.4,40.18,9.22C173,164.65,176.36,154.53,175.36,145.09Zm-70.5-35.74c11.09,13.43-3.78,25.77-12.69,33.89a144.84,144.84,0,0,1-22.34,17.19c-4.45,2.69-7,1.56-5.68-1.8h0c4.77-12.94,16.17-42.58,28.29-60.17-1.07-.89-3.27-2.69-5.23-4.08h0c-1.38,2.65-3.29,6.23-4.58,8.92a19.61,19.61,0,0,1-2.55-9.38c.08-2.17.87-3.32,2.62-3.32,3.22,0,11,6.8,16.43,12.29C102.06,105.86,104.14,108.48,104.86,109.35Z"/><path class="cls-5" d="M66,199.71c.11-2.56.17-5.12.26-7.68,0-.87.06-1.74.1-2.61,0-.59-1.29-.56-1.69-.59a17.16,17.16,0,0,1-4.92-.64c-.7-.26-1.2-1.09-.29-1.41a8.51,8.51,0,0,1,2.54-.32c1,0,1.93,0,2.89,0H66.3c.3,0,.31-.77.34-1,.08-.66-.15-6.2.67-6.2s4.17.25,4,1.54L71,184.33l-.15,1.47c-.06.58.33.67.89.75a34,34,0,0,0,4.39.09c2.33,0,4.65,0,7,.07a7.91,7.91,0,0,1,3.26.42,1.08,1.08,0,0,1,.72,1c0,.4-.32.61-.64.37s-1.62-.11-2.14-.09c-2.47.08-4.94.05-7.41.11-.77,0-1.53.07-2.3.1a13.73,13.73,0,0,0-3.56.27c-.52.16-.39.95-.42,1.38,0,.78-.07,1.55-.1,2.33-.08,2-.16,4-.2,6a22.79,22.79,0,0,0,.32,6.19c.2.75.59,1.78,1.52,1.73a3,3,0,0,0,2-.66A10.21,10.21,0,0,0,76.48,201c.07-.32.29-3.42.38-3.4.34.06,2.44-.58,2.37.23-.43,5.1-2.66,9.68-4.62,10.84-2.2,1.3-5.1,1.09-6.61-.84C66.26,205.56,66,202.43,66,199.71Z"/><path class="cls-5" d="M90.67,202.37a9.06,9.06,0,0,1-1.73,4.86c-1.11,1.53-2.5,2.43-4.42,1.74-1.73-.62-2.62-2.61-3-4.27a15.33,15.33,0,0,1-.2-5.58c.07-.54.53-2.11-.24-2.28-.51-.1-1.63-.31-1.74.43-.22,1.43-.53,2.83-.86,4.24a7.43,7.43,0,0,1-.93,2.51c-.29.43-1.5,1-1.5.05a22.7,22.7,0,0,1,.57-2.69c.09-.72.17-5.25.12-6l-.11-1.78c-.05-.81.37-1.12,1.16-1.38s2.1-.58,2.24.47a10.94,10.94,0,0,1,0,1.4c0,.82.78.69,1.42.73a17.45,17.45,0,0,1,3.74.43c1.07.31,1.36.78.91,1.82a17.52,17.52,0,0,0-1,2.94,11.27,11.27,0,0,0,.11,6.51c1.16,2.87,3.33-1.22,3.78-2.43.35-1,.48-2,.82-2.92a.74.74,0,0,1,1.41.37c0,.15,0,.35-.08.48s-.42.23-.47.39S90.7,202.26,90.67,202.37Z"/><path class="cls-5" d="M100.31,200.68a8.73,8.73,0,0,1-3.14,6,4.67,4.67,0,0,1-5.74-.12c-1.79-1.4-1.92-3.72-1.81-5.81.06-1.22,0-2.45,0-3.67a19,19,0,0,0-.09-3.57c-.05-.28-.51-.91-.3-1.16s.95-.33,1.35-.34a6.21,6.21,0,0,1,3,.51c1,.54.55,1.17.28,2a13.65,13.65,0,0,0-.52,3,31.53,31.53,0,0,0-.1,4c0,1.32.09,3.71,1.93,3.71,1.67,0,2.83-1.67,3.26-3.12.22-.76.42-1.54.6-2.32.06-.28,0-.92.36-1C100.64,198.57,100.43,200,100.31,200.68Z"/><path class="cls-5" d="M131.63,200.68a8.59,8.59,0,0,1-3.22,6,5,5,0,0,1-6.32-.44c-1.55-1.44-1.65-3.72-1.46-5.66.09-.94,0-1.92,0-2.86s0-1.92,0-2.88a5.88,5.88,0,0,0-.16-1.57c-.11-.35-.58-.81-.05-1a6,6,0,0,1,3.11-.09c.72.13,2.14.49,1.95,1.48-.08.38-.38.75-.49,1.13a11.85,11.85,0,0,0-.32,1.66,29.07,29.07,0,0,0-.25,4.37c0,1.26-.16,3.38,1.08,4.2,1.57,1,3.37-.79,4-2a14.6,14.6,0,0,0,.9-3c.06-.24.06-1,.27-1.1.66-.42,1.08.44,1.08.92A6.07,6.07,0,0,1,131.63,200.68Z"/><path class="cls-5" d="M142.28,206c-.77-.7-.91-1.89-1.24-2.82-.48.85-.56,1.94-1,2.84a4.67,4.67,0,0,1-2.06,2.57,5.91,5.91,0,0,1-5.6-.82c-2-1.74-2-4.9-2-7.33v-7.55c0-.53-.2-1.73.56-1.73,1,0,3.93.27,3.93,1.66v6.76a23,23,0,0,0,.24,4.45c.16.82.52,1.92,1.57,1.7a2.59,2.59,0,0,0,1.63-1.66,15.71,15.71,0,0,0,1.1-4.9c.11-1.08.16-2.16.18-3.25a3.58,3.58,0,0,0-.28-1.58c-.21-.54-.15-1,.46-1.1a8.54,8.54,0,0,1,3.18,0,1.46,1.46,0,0,1,1.42,1.58,29.27,29.27,0,0,1-.33,3.3,18.32,18.32,0,0,0,.11,3c.11,1.07.38,3.8,1.78,4,1,.18,1.46-.76,2-1.42s1.71-.83,1.71.23c0,1.88-2,2.83-3.61,3.09A4.83,4.83,0,0,1,142.28,206Z"/><path class="cls-5" d="M164.77,197.4a29.71,29.71,0,0,0-2.7,6.08,26.69,26.69,0,0,0-1,3.35c-.06.34,0,.93-.3,1.13a3.13,3.13,0,0,1-1.76.3,2.75,2.75,0,0,1-2.49-1.13,6.6,6.6,0,0,1-.46-3.08c0-1.22,0-2.43,0-3.65a6.1,6.1,0,0,0-.07-1.51c-.12-.47-.38,0-.49.19a9.52,9.52,0,0,0-.61,1.67,31.8,31.8,0,0,0-1.25,7.21c0,.36.11,1-.23,1.2a2.79,2.79,0,0,1-1.41.22c-.89,0-2.59,0-3.27-.71s-.48-1.89-.53-2.58c-.07-1.1-.08-2.21-.09-3.31,0-3.61.43-7.27.17-10.87-.06-.81.73-.75,1.35-.69s2.18.1,2.73.6c.13.21,0,.89,0,1.12v9.66c.78-2.31,1.26-4.7,2.49-6.84a2.36,2.36,0,0,1,2.22-1.41c.78-.06,2.31.07,2.72.88a1.85,1.85,0,0,1,0,.74v6.63c0,.34,0,1,.31.41,1-2.12,1.79-4.42,2.73-6.59.44-1,.89-2,1.43-3s1.8-.7,2.63-.47a5.06,5.06,0,0,1,2.72,1.68.81.81,0,0,1,.07,1,4.78,4.78,0,0,0-.71,1.69,19.51,19.51,0,0,0-.34,6.85c.1.8.31,2.35,1.29,2.57s2-.69,2.51-1.54a11.33,11.33,0,0,0,1.11-3.09c.15-.64.44-2.13,1.48-1.58.55.29.17,1.67.06,2.14a13.72,13.72,0,0,1-1.23,3.25c-1.07,2-2.67,3.58-5.07,3.29s-3.56-2.12-4-4.25A23.9,23.9,0,0,1,164.77,197.4Z"/><path class="cls-5" d="M122,202.83c-.75-1.12-2.14,1.42-2.45,1.85-.77,1.07-1.76,2.81-3.26,2.81-1.1,0-1.6-1.15-1.87-2a10,10,0,0,1-.35-1.63c0-.26-.07-.51-.1-.77-.05-.45,0-.55.31-.92a20.43,20.43,0,0,0,3.08-6.85,37.47,37.47,0,0,0,1.15-7.77,10.92,10.92,0,0,0-.66-5.26,3.07,3.07,0,0,0-2.13-1.75c-1-.2-2.67-.31-3.26.52-4.26,5.94-3,22.18-1.44,25.55,1.42,3,6,3.25,8.19,1a13,13,0,0,0,1.69-2.34,4.32,4.32,0,0,0,.61-1.16c.06-.27.65-1,.5-1.24Zm-7-18.28c1.53,0,1.07,4.5,1,5.21a27.26,27.26,0,0,1-2.47,9.35C113,196.42,113,184.54,115,184.54Z"/><path class="cls-5" d="M111,202.83c-.74-1.12-2.11,1.42-2.41,1.85-.76,1.07-1.72,2.81-3.2,2.81-1.08,0-1.57-1.15-1.84-2a10.3,10.3,0,0,1-.35-1.63c0-.26-.07-.51-.1-.77a1,1,0,0,1,.3-.92,20.61,20.61,0,0,0,3-6.85,38.06,38.06,0,0,0,1.13-7.77,11.12,11.12,0,0,0-.65-5.26,3,3,0,0,0-2.1-1.75c-1-.2-2.62-.31-3.2.52-4.18,5.94-3,22.18-1.41,25.55,1.39,3,5.86,3.25,8,1a13,13,0,0,0,1.66-2.34,4.33,4.33,0,0,0,.6-1.16c.06-.27.64-1,.49-1.24Zm-6.86-18.28c1.5,0,1,4.5,1,5.21a27.62,27.62,0,0,1-2.43,9.35C102.2,196.42,102.2,184.54,104.13,184.54Z"/><path class="cls-5" d="M126.07,188.63c0-1.26,0-4.78-1.24-4.79s-3.3,2-3.31,3.25a2.28,2.28,0,0,0,2.26,2.3C125,189.41,126.06,189.89,126.07,188.63Z"/><path class="cls-5" d="M91.86,188.73a2,2,0,0,0,2.79.34c.87-.68.5-2.58-.17-3.45s-1.41-.36-2.27.32A2,2,0,0,0,91.86,188.73Z"/></g></g></svg>