<svg xmlns="http://www.w3.org/2000/svg" viewBox="0 0 49.26 49.49"><defs><style>.cls-1{fill:#fff;}</style></defs><title>instagram</title><g id="Layer_2" data-name="Layer 2"><g id="Layer_1-2" data-name="Layer 1"><g id="Layer_2-2" data-name="Layer 2"><g id="Layer_1-2-2" data-name="Layer 1-2"><g id="Layer_2-2-2" data-name="Layer 2-2"><g id="Layer_1-2-2-2" data-name="Layer 1-2-2"><path class="cls-1" d="M5.52,39a.6.6,0,0,1-.4-.1C-.38,33.29,0,24.79,0,24.49a24.35,24.35,0,0,1,5.3-15.1A24.63,24.63,0,0,1,21.72.19a23.85,23.85,0,0,1,18,5.1.5.5,0,0,1-.6.8,23.25,23.25,0,0,0-17.4-4.9A23.06,23.06,0,0,0,6,10,23.81,23.81,0,0,0,1,24.5c0,.1-.4,8.4,4.9,13.6a.48.48,0,0,1,0,.68l0,0A.4.4,0,0,1,5.52,39Z"/><path class="cls-1" d="M24.82,49.49a24.27,24.27,0,0,1-15.1-5.2.5.5,0,1,1,.6-.8h0a23.46,23.46,0,0,0,33-3.84l0-.06a23.81,23.81,0,0,0,5-14.5c0-.1.4-8.4-4.9-13.6a.49.49,0,1,1,.7-.7h0c5.6,5.6,5.2,14,5.1,14.4a24.57,24.57,0,0,1-5.3,15.1A24,24,0,0,1,24.82,49.49Z"/></g></g></g></g><circle class="cls-1" cx="31.45" cy="17.95" r="1.56"/><path class="cls-1" d="M31,11.93H18.28a6.47,6.47,0,0,0-6.47,6.47V31.1a6.47,6.47,0,0,0,6.47,6.47H31a6.47,6.47,0,0,0,6.47-6.47V18.4A6.47,6.47,0,0,0,31,11.93ZM34.66,31.1A3.68,3.68,0,0,1,31,34.77H18.28A3.68,3.68,0,0,1,14.6,31.1V18.4a3.68,3.68,0,0,1,3.68-3.68H31a3.68,3.68,0,0,1,3.68,3.68Z"/><path class="cls-1" d="M24.63,18.14a6.6,6.6,0,1,0,6.6,6.6A6.61,6.61,0,0,0,24.63,18.14Zm0,10.42a3.81,3.81,0,1,1,3.81-3.81A3.82,3.82,0,0,1,24.63,28.56Z"/></g></g></svg>