<svg xmlns="http://www.w3.org/2000/svg" xmlns:xlink="http://www.w3.org/1999/xlink" viewBox="0 0 471.51 513.23"><defs><style>.cls-1{fill:#ff5a60;}.cls-2{opacity:0.81;}.cls-3{fill:url(#linear-gradient);}.cls-4{fill:#fff;}</style><linearGradient id="linear-gradient" x1="45.4" y1="376.87" x2="332.68" y2="89.6" gradientUnits="userSpaceOnUse"><stop offset="0" stop-color="#843366"/><stop offset="0.18" stop-color="#ad4064"/><stop offset="0.4" stop-color="#da4e62"/><stop offset="0.58" stop-color="#f55760"/><stop offset="0.68" stop-color="#ff5a60"/><stop offset="0.74" stop-color="#ff5e5c"/><stop offset="0.8" stop-color="#ff6950"/><stop offset="0.87" stop-color="#ff7c3c"/><stop offset="0.93" stop-color="#ff9620"/><stop offset="0.98" stop-color="#ffb400"/></linearGradient></defs><title>invited_title</title><g id="Layer_2" data-name="Layer 2"><g id="Layer_1-2" data-name="Layer 1"><path class="cls-1" d="M173.08,513.23c-20.09,0-40-6.35-59.45-11.41l-12.23-6.69c85.61,22.2,173.6-4.67,220.79-35C394.1,414,452.18,337.41,463.41,274,484.76,153.48,323.7,33.51,168.45.63L178.9,0c81,17.15,159.12,54.06,214.38,103.94,59.19,53.43,86.24,114.2,76.16,171.12-5.44,30.74-22.2,66.19-47.18,99.82a372.76,372.76,0,0,1-96.77,90.44c-32.27,20.73-65.92,34.95-100,42.26A256.48,256.48,0,0,1,173.08,513.23Z"/><g class="cls-2"><path class="cls-3" d="M445.54,240.91c0,85.38-100.47,231.38-236.71,220.67-85.12-6.69-195.51-84-205.57-168.78C-7.44,202.49,7.43,44.2,58.79,24.25,187.79-25.85,445.54,147.54,445.54,240.91Z"/></g><path class="cls-4" d="M95.76,188.67l-15,30.24v19.87h-6V218.91l-15-30.24h6.7l7,13.9,4.46,9.58,4.68-10,6.77-13.46Z"/><path class="cls-4" d="M128.23,193.49a18.76,18.76,0,0,1,4.9,13.32v13.83c0,5.69-1.66,10.15-4.9,13.54s-7.56,5-13,5c-5.69,0-10.08-1.73-13.18-5.26s-4.61-8-4.61-13.32V206.81a19.23,19.23,0,0,1,4.61-13.18c3.1-3.53,7.49-5.33,13.18-5.33Q123.37,188.31,128.23,193.49ZM106.77,198a13.82,13.82,0,0,0-3,8.93v13.32a14.34,14.34,0,0,0,3,9.22,11.35,11.35,0,0,0,16.85.14,13.89,13.89,0,0,0,3.17-9.36V207a13.21,13.21,0,0,0-3.17-9,10.31,10.31,0,0,0-8.28-3.67C111.67,194.28,108.79,195.51,106.77,198Z"/><path class="cls-4" d="M169.78,188.67h6.34v32c0,5.69-1.66,10.15-4.9,13.54s-7.56,5-13,5c-5.69,0-10.08-1.73-13.18-5.26s-4.61-8-4.61-13.32v-32h6.26v31.47a14.33,14.33,0,0,0,3,9.22,10.4,10.4,0,0,0,8.57,3.82c7.13,0,11.45-4.75,11.45-13Z"/><path class="cls-4" d="M237.82,238.78h-6.7l-4-11.52H206.28l-4,11.52h-6.62L214,188.67h5.47Zm-12.53-17-4.82-14-3.67-10.66h-.22L213,207.46l-5,14.33Z"/><path class="cls-4" d="M277.27,238.78h-7.06l-9.58-22h-11.3v22H243V188.67h20.45a14.68,14.68,0,0,1,10.3,3.82,12.63,12.63,0,0,1,4.18,9.86c0,6.7-4.25,11.74-10.8,13.75Zm-15-44.57h-13v17H262c5.69,0,9.58-3.31,9.58-8.86S268,194.21,262.29,194.21Z"/><path class="cls-4" d="M317,238.78H285.33V188.67H317v5.83H291.67v16.2h21.6v5.54h-21.6v16.71H317Z"/><path class="cls-4" d="M73.41,310.78H65.93V251.62h7.48Z"/><path class="cls-4" d="M130,310.78h-7.31l-21.59-33.32L93.3,264.54l-.26.08v46.16H85.56V251.62H93l20.83,32.22,8.59,14.2.25-.17V251.62H130Z"/><path class="cls-4" d="M158.32,298l.43-.08,2.38-8.16,2.47-8.16,9.27-30h8.25l-19.64,59.17h-6.12l-19.64-59.17h8.16l9.44,30.18Z"/><path class="cls-4" d="M194.7,310.78h-7.48V251.62h7.48Z"/><path class="cls-4" d="M241.63,258.16H224.79v52.62h-7.48V258.16H200.48v-6.55h41.14Z"/><path class="cls-4" d="M284.72,310.78h-37.4V251.62h37.4v6.89H254.8v19.13h25.5v6.55H254.8V303.9h29.92Z"/><path class="cls-4" d="M292.62,251.62H312q14.92,0,20.15,11,2.29,4.72,2.29,17.6c0,9.27-.68,15.56-2.12,18.87-3.4,7.82-10.63,11.73-21.76,11.73H292.62ZM327,275.76c0-11.48-5.1-17.26-15.3-17.26H300.1V303.9h11.56q15.3,0,15.3-16.83Z"/></g></g></svg>