<svg xmlns="http://www.w3.org/2000/svg" viewBox="0 0 49.26 49.49"><defs><style>.cls-1{fill:#fff;}</style></defs><title>location</title><g id="Layer_2" data-name="Layer 2"><g id="Layer_1-2" data-name="Layer 1"><g id="Layer_2-2" data-name="Layer 2"><g id="Layer_1-2-2" data-name="Layer 1-2"><g id="Layer_2-2-2" data-name="Layer 2-2"><g id="Layer_1-2-2-2" data-name="Layer 1-2-2"><path class="cls-1" d="M5.52,39a.6.6,0,0,1-.4-.1C-.38,33.29,0,24.79,0,24.49a24.35,24.35,0,0,1,5.3-15.1A24.63,24.63,0,0,1,21.72.19a23.85,23.85,0,0,1,18,5.1.5.5,0,0,1-.6.8,23.25,23.25,0,0,0-17.4-4.9A23.06,23.06,0,0,0,6,10,23.81,23.81,0,0,0,1,24.5c0,.1-.4,8.4,4.9,13.6a.48.48,0,0,1,0,.68l0,0A.4.4,0,0,1,5.52,39Z"/><path class="cls-1" d="M24.82,49.49a24.27,24.27,0,0,1-15.1-5.2.5.5,0,1,1,.6-.8h0a23.46,23.46,0,0,0,33-3.84l0-.06a23.81,23.81,0,0,0,5-14.5c0-.1.4-8.4-4.9-13.6a.49.49,0,1,1,.7-.7h0c5.6,5.6,5.2,14,5.1,14.4a24.57,24.57,0,0,1-5.3,15.1A24,24,0,0,1,24.82,49.49Z"/></g></g></g></g><path id="Facebook_Places" data-name="Facebook Places" class="cls-1" d="M33.37,18.46a8.3,8.3,0,0,0-.43-1.07,9,9,0,0,0-8.44-5.56,9,9,0,0,0-9,8.2,1.06,1.06,0,0,0,0,.12v1.08s0,.47,0,.69c.33,2.65,2.42,5.47,4,8.12,1.44,2.43,2.93,4.84,4.41,7.23a.85.85,0,0,0,1.45,0C26.17,35.82,27,34.4,27.81,33c.28-.52.61-1,.9-1.54.19-.33.55-.66.72-1,1.68-3.08,4.39-6.18,4.39-9.23V20A9.45,9.45,0,0,0,33.37,18.46Zm-8.79,5.71a3.26,3.26,0,0,1-3.12-2.23,3.09,3.09,0,0,1-.09-.83v-.73a3.08,3.08,0,0,1,3.31-3A3.35,3.35,0,0,1,28,20.75,3.44,3.44,0,0,1,24.58,24.16Z"/></g></g></svg>