<svg xmlns="http://www.w3.org/2000/svg" viewBox="0 0 221.09 75.49"><defs><style>.cls-1{fill:#ff5a60;}.cls-2{fill:#fff;}</style></defs><title>nav_logo</title><g id="Layer_2" data-name="Layer 2"><g id="Layer_1-2" data-name="Layer 1"><path class="cls-1" d="M75.28,38.11c0,14.43-17,39.09-40,37.28C20.9,74.26,2.25,61.2.55,46.88c-1.81-15.26.7-42,9.38-45.37C31.73-7,75.28,22.34,75.28,38.11Z"/><path class="cls-1" d="M92.57,46.46c.13-3,.2-6,.31-9,0-1,.06-2,.12-3.07,0-.7-1.52-.66-2-.69a20.18,20.18,0,0,1-5.78-.75c-.82-.3-1.41-1.28-.34-1.66a10,10,0,0,1,3-.38c1.13,0,2.26,0,3.39-.05h1.68c.36,0,.37-.9.4-1.15.1-.77-.18-7.29.79-7.29s4.9.29,4.75,1.81l-.42,4.19-.17,1.72c-.07.68.39.79,1.05.88a40,40,0,0,0,5.16.11c2.73,0,5.47,0,8.2.08a9.28,9.28,0,0,1,3.83.49,1.27,1.27,0,0,1,.85,1.17c0,.47-.38.72-.75.43-.52-.41-1.9-.13-2.51-.11-2.9.1-5.8.06-8.7.13-.9,0-1.8.08-2.7.12a16.12,16.12,0,0,0-4.19.32c-.61.19-.46,1.11-.5,1.63-.06.91-.08,1.82-.12,2.74-.09,2.37-.19,4.73-.23,7.1a26.78,26.78,0,0,0,.37,7.27c.23.88.69,2.09,1.79,2a3.56,3.56,0,0,0,2.36-.78,12,12,0,0,0,2.68-5.79c.09-.37.35-4,.45-4,.4.07,2.86-.68,2.78.27-.51,6-3.12,11.37-5.43,12.73-2.58,1.53-6,1.28-7.76-1C92.89,53.33,92.57,49.66,92.57,46.46Z"/><path class="cls-1" d="M121.57,49.58a10.65,10.65,0,0,1-2,5.71c-1.3,1.8-2.94,2.85-5.19,2-2-.73-3.08-3.07-3.55-5a18,18,0,0,1-.24-6.56c.08-.64.63-2.48-.29-2.67-.6-.12-1.92-.36-2,.51-.26,1.68-.62,3.33-1,5a8.74,8.74,0,0,1-1.09,3c-.35.51-1.76,1.19-1.76.06a26.64,26.64,0,0,1,.67-3.16c.11-.84.2-6.17.15-7.1l-.13-2.1c-.06-1,.43-1.32,1.37-1.62s2.46-.69,2.63.55a12.87,12.87,0,0,1,0,1.64c0,1,.92.81,1.66.86a20.5,20.5,0,0,1,4.39.5c1.25.36,1.6.92,1.07,2.13A20.55,20.55,0,0,0,115,46.75a13.24,13.24,0,0,0,.12,7.64c1.36,3.38,3.92-1.44,4.45-2.85.42-1.12.56-2.31,1-3.43a.87.87,0,0,1,1.66.44c0,.18,0,.41-.1.57s-.5.27-.55.45S121.61,49.45,121.57,49.58Z"/><path class="cls-1" d="M132.89,47.6c-.36,2.63-1.46,5.45-3.69,7a5.49,5.49,0,0,1-6.74-.14c-2.11-1.64-2.25-4.37-2.12-6.82.08-1.43,0-2.88,0-4.31a22.35,22.35,0,0,0-.11-4.19c-.06-.33-.6-1.07-.35-1.36s1.11-.39,1.59-.4a7.29,7.29,0,0,1,3.57.6c1.19.63.65,1.38.33,2.34a16,16,0,0,0-.61,3.56,37,37,0,0,0-.11,4.67c0,1.55.11,4.36,2.27,4.36,2,0,3.32-2,3.82-3.67.26-.9.5-1.81.7-2.72.07-.32,0-1.08.43-1.15C133.27,45.12,133,46.79,132.89,47.6Z"/><path class="cls-1" d="M169.68,47.6c-.37,2.63-1.47,5.44-3.79,7a5.89,5.89,0,0,1-7.42-.52c-1.82-1.7-1.94-4.37-1.72-6.65.11-1.1,0-2.26,0-3.36s0-2.25,0-3.38a6.89,6.89,0,0,0-.19-1.85c-.13-.41-.68-.95-.06-1.22a7.06,7.06,0,0,1,3.65-.1c.84.15,2.52.58,2.29,1.74-.09.45-.44.88-.58,1.33a13.94,13.94,0,0,0-.37,1.95,34.13,34.13,0,0,0-.29,5.13c0,1.48-.19,4,1.27,4.94,1.85,1.23,4-.92,4.67-2.4a17.15,17.15,0,0,0,1.05-3.5c.07-.28.07-1.14.31-1.29.78-.49,1.27.51,1.27,1.08A7.16,7.16,0,0,1,169.68,47.6Z"/><path class="cls-1" d="M182.2,53.8c-.91-.82-1.07-2.22-1.45-3.32-.56,1-.66,2.28-1.12,3.34a5.48,5.48,0,0,1-2.42,3,6.94,6.94,0,0,1-6.58-1c-2.34-2-2.29-5.75-2.29-8.61V38.4c0-.62-.24-2,.66-2,1.23,0,4.62.32,4.62,2v7.94a27,27,0,0,0,.28,5.23c.19,1,.61,2.25,1.85,2a3,3,0,0,0,1.91-1.95A18.43,18.43,0,0,0,179,45.79c.12-1.27.18-2.54.22-3.82a4.19,4.19,0,0,0-.33-1.86c-.24-.63-.17-1.12.54-1.29a10,10,0,0,1,3.74,0,1.72,1.72,0,0,1,1.67,1.85,34.41,34.41,0,0,1-.38,3.87,21.5,21.5,0,0,0,.12,3.55c.13,1.26.44,4.46,2.09,4.75,1.18.21,1.71-.89,2.32-1.66s2-1,2,.27c0,2.21-2.33,3.33-4.25,3.63A5.67,5.67,0,0,1,182.2,53.8Z"/><path class="cls-1" d="M208.63,43.74a34.94,34.94,0,0,0-3.17,7.15,31.22,31.22,0,0,0-1.12,3.93c-.07.4,0,1.09-.35,1.33a3.67,3.67,0,0,1-2.06.35A3.23,3.23,0,0,1,199,55.17a7.75,7.75,0,0,1-.54-3.62c0-1.43,0-2.86,0-4.28a7.16,7.16,0,0,0-.08-1.78c-.15-.55-.44,0-.58.22a11.14,11.14,0,0,0-.71,2,37.33,37.33,0,0,0-1.47,8.47c0,.42.13,1.13-.27,1.41a3.27,3.27,0,0,1-1.66.26c-1,0-3,0-3.84-.83-.63-.61-.57-2.22-.62-3-.09-1.3-.1-2.59-.1-3.89,0-4.25.5-8.54.19-12.78-.07-1,.85-.89,1.59-.81s2.56.12,3.21.7c.15.24,0,1,0,1.32V49.84c.92-2.71,1.48-5.53,2.93-8a2.77,2.77,0,0,1,2.61-1.66c.91-.07,2.72.08,3.19,1a2.17,2.17,0,0,1,0,.87v7.79c0,.39,0,1.23.37.49,1.23-2.49,2.1-5.19,3.21-7.74.52-1.19,1-2.38,1.68-3.51.54-1,2.11-.83,3.09-.56a6,6,0,0,1,3.19,2,1,1,0,0,1,.08,1.22,5.61,5.61,0,0,0-.84,2,22.91,22.91,0,0,0-.4,8c.12.94.36,2.76,1.52,3s2.37-.81,2.95-1.81a13.32,13.32,0,0,0,1.3-3.62c.18-.75.52-2.5,1.73-1.85.64.34.2,2,.07,2.52a16.11,16.11,0,0,1-1.45,3.82c-1.26,2.35-3.14,4.21-6,3.86s-4.18-2.49-4.75-5C208,49.67,208.36,46.75,208.63,43.74Z"/><path class="cls-1" d="M158.32,50.12c-.88-1.31-2.52,1.67-2.88,2.17-.91,1.26-2.06,3.3-3.83,3.3-1.29,0-1.88-1.35-2.2-2.36a11.8,11.8,0,0,1-.41-1.91c0-.3-.08-.6-.12-.9-.06-.53,0-.64.36-1.08a24,24,0,0,0,3.62-8,44,44,0,0,0,1.35-9.13,12.83,12.83,0,0,0-.77-6.18,3.61,3.61,0,0,0-2.51-2.06c-1.14-.23-3.13-.36-3.83.62-5,7-3.54,26.06-1.69,30,1.66,3.57,7,3.81,9.62,1.13a15.31,15.31,0,0,0,2-2.75,5,5,0,0,0,.71-1.36c.07-.32.77-1.18.58-1.46Zm-8.2-21.48c1.8,0,1.25,5.29,1.18,6.13a32,32,0,0,1-2.91,11C147.81,42.6,147.81,28.64,150.12,28.64Z"/><path class="cls-1" d="M145.44,50.12c-.87-1.31-2.47,1.67-2.83,2.17-.89,1.26-2,3.3-3.76,3.3-1.27,0-1.85-1.35-2.16-2.36a12,12,0,0,1-.41-1.91c0-.3-.08-.6-.11-.9a1.19,1.19,0,0,1,.35-1.08,24.21,24.21,0,0,0,3.56-8,44.71,44.71,0,0,0,1.33-9.13,13.06,13.06,0,0,0-.76-6.18,3.56,3.56,0,0,0-2.46-2.06c-1.12-.23-3.08-.36-3.76.62-4.91,7-3.48,26.06-1.66,30,1.64,3.57,6.88,3.81,9.45,1.13a15.24,15.24,0,0,0,2-2.75,5.08,5.08,0,0,0,.7-1.36c.07-.32.75-1.18.58-1.46Zm-8.06-21.48c1.76,0,1.23,5.29,1.16,6.13a32.45,32.45,0,0,1-2.86,11C135.11,42.6,135.11,28.64,137.38,28.64Z"/><path class="cls-1" d="M163.16,33.44c0-1.48,0-5.61-1.46-5.62s-3.87,2.34-3.89,3.82a2.68,2.68,0,0,0,2.66,2.71C161.95,34.36,163.14,34.93,163.16,33.44Z"/><path class="cls-1" d="M123,33.57a2.33,2.33,0,0,0,3.27.4c1-.79.59-3-.2-4s-1.65-.42-2.67.37A2.33,2.33,0,0,0,123,33.57Z"/><path class="cls-2" d="M56.21,28.56c.78-.81,2.95-3.07,2.14-3.85a3.88,3.88,0,0,0-4.13.06,2,2,0,0,0,0,2.88C55.07,28.43,55.43,29.36,56.21,28.56Z"/><path class="cls-2" d="M26.23,35.35l-.42.7c1.36,1.88,2.83,3.64,4.14,5.45.32.44.93.69.27-.21-1.28-1.77-2.06-3-3.24-4.81Z"/><path class="cls-2" d="M20.85,27.18a1.63,1.63,0,0,0,1.63-1.63c0-.9-1.42-1.63-2.32-1.63s-.94.73-.94,1.63A1.63,1.63,0,0,0,20.85,27.18Z"/><path class="cls-2" d="M59.56,48.49c-.26-2.5-2.41-6.68-3.41-8.89-.85-1.9-3.44-7.08-3.44-7.08a4.17,4.17,0,0,0-.84.53s2,4,2.53,5.09c1.07,2.28,3.48,7.35,3.76,9.55a10.41,10.41,0,0,1-.57,4.46,7.31,7.31,0,0,1-4.78,4.7,12,12,0,0,1-7.68.07,8,8,0,0,1-4.65-4.75,10.61,10.61,0,0,1,0-5.16,12,12,0,0,1,1.27-3.06,53.34,53.34,0,0,1,8.84-10.59c2.41-2,3.42-2,4-2.58.33-.35-2.6-3.91-3-3.52-.09.09-.17.55-.25.64l-.79.86c-.19-.34-5.51-11.48-9.65-13.55-5.43-2.73-9.6,5.52-12.1,9.63-.64,1-1.25,2.11-1.83,3.18a9.14,9.14,0,0,0-2.22-1.12c-2.21-.74-2.9,1.32-2.3,3.14a18.15,18.15,0,0,0,1.68,3.59c-1.44,3.06-2.77,6.17-4.07,9.27-1.47,3.53-2.89,7.08-4.2,10.67-.64,1.75-.17,3.87,2,4,1.66.13,3.89-1.45,5.14-2.27a57.9,57.9,0,0,0,8.6-7.16A20.23,20.23,0,0,0,36,42.82c2.61-5.31-2.12-8.86-5.61-11.95L29,29.61c1-1.53,2-3.11,3.12-4.84a36,36,0,0,1,5.07-6.53c2.87-2.54,5-1,7.13,2.09s3.88,6,5.62,9.13a89.31,89.31,0,0,0-9.64,12.93,12.65,12.65,0,0,0-1.74,5.81A10.85,10.85,0,0,0,40.1,54C43,59,50.45,59.85,55.25,57.53,58.69,55.86,59.94,52,59.56,48.49ZM33,35c4.18,5.06-1.42,9.71-4.78,12.77a54.55,54.55,0,0,1-8.42,6.48c-1.68,1-2.62.59-2.14-.68h0c1.8-4.88,6.09-16,10.66-22.67-.4-.33-1.23-1-2-1.54h0c-.52,1-1.24,2.35-1.73,3.36a7.39,7.39,0,0,1-1-3.54c0-.82.33-1.25,1-1.25,1.21,0,4.14,2.56,6.19,4.63C31.94,33.71,32.73,34.69,33,35Z"/></g></g></svg>