<svg xmlns="http://www.w3.org/2000/svg" viewBox="0 0 76.48 76.46"><defs><style>.cls-1{fill:#f05c62;}.cls-2{fill:#fff;}</style></defs><title>nutshell_logo</title><g id="Layer_2" data-name="Layer 2"><g id="Layer_1-2" data-name="Layer 1"><path class="cls-1" d="M38.23,76.46A38.28,38.28,0,0,0,76.48,38.2C76.48,17.09,43.25,0,22.11,0S0,17.09,0,38.2A38.23,38.23,0,0,0,38.23,76.46Z"/><path class="cls-2" d="M56,31.09c.71-.73,2.67-2.78,1.94-3.49a3.51,3.51,0,0,0-3.74.06,1.84,1.84,0,0,0,0,2.61C54.93,31,55.26,31.82,56,31.09Z"/><path class="cls-2" d="M26.86,38.44l-.49.76c1.1,1.79,2.65,4,3.7,5.7.25.42.79.69.26-.17C29.31,43,27.08,38.81,26.86,38.44Z"/><path class="cls-2" d="M21.22,28.75a1.48,1.48,0,0,0,1.48-1.48c0-.81-1.28-1.47-2.1-1.47s-.85.66-.85,1.47A1.48,1.48,0,0,0,21.22,28.75Z"/><path class="cls-2" d="M58,50.18c-.24-2.26-2.29-6-3.19-8-.64-1.42-2.26-4.76-2.84-5.91-.12-.24-.85.29-.76.47.44.87,1.63,3.32,2,4.13,1,2.06,2.79,6.71,3.05,8.7a7,7,0,0,1-.52,3.94,6.74,6.74,0,0,1-4.12,4,10.36,10.36,0,0,1-6.8.27,6.9,6.9,0,0,1-4.21-4.2,9.61,9.61,0,0,1,0-4.67,10.88,10.88,0,0,1,1.15-2.78,48.33,48.33,0,0,1,8-9.59c2.18-1.82,3.89-2.77,4.43-3.34.3-.32-2.35-3.54-2.68-3.19-.08.08-.15.5-.23.58-.24.26-1.28,1.52-1.51,1.78C49.6,32,44.79,21.92,41,20c-4.92-2.47-8.7,5-11,8.72-.58.95-1.13,1.91-1.66,2.88A27.94,27.94,0,0,0,25,29.37c-2-.67-2.63,1.19-2.08,2.84.29.88,1.61,3.81,2.06,4.64.06.12.57-.87.47-1.1-.36-.86-1.51-3.44-1.48-4.29s.3-1.13.89-1.13c1.1,0,5.2,3.58,7.05,5.45a29.43,29.43,0,0,1,2,2.2c3.79,4.58-1.29,8.8-4.33,11.57a49.45,49.45,0,0,1-7.62,5.87c-1.52.92-2.38.53-1.94-.61h0c1.59-4.32,5.27-13.93,9.29-20,.11-.17-1.6-1.62-1.74-1.37-.48.85-4.15,8.85-5.33,11.66-1.33,3.19-2.62,6.41-3.8,9.66-.58,1.59-.15,3.51,1.8,3.66,1.5.12,3.52-1.32,4.65-2.06a52.35,52.35,0,0,0,7.79-6.48,18.32,18.32,0,0,0,4-4.84c2.36-4.81-1.92-8-5.09-10.82l-1.28-1.14c.88-1.38,1.81-2.81,2.82-4.39a32.55,32.55,0,0,1,4.59-5.92c2.6-2.3,4.55-.9,6.46,1.9s3.51,5.44,5.09,8.27a80.93,80.93,0,0,0-8.73,11.71,11.44,11.44,0,0,0-1.58,5.26,9.83,9.83,0,0,0,1.38,5.31C42.91,59.7,49.7,60.48,54,58.37,57.16,56.86,58.35,53.41,58,50.18Z"/></g></g></svg>