<svg xmlns="http://www.w3.org/2000/svg" xmlns:xlink="http://www.w3.org/1999/xlink" viewBox="0 0 389.39 423.84"><defs><style>.cls-1{fill:#ff5a60;}.cls-2{fill:url(#linear-gradient);}.cls-3{fill:#fff;}</style><linearGradient id="linear-gradient" x1="37.49" y1="311.23" x2="274.74" y2="73.99" gradientUnits="userSpaceOnUse"><stop offset="0" stop-color="#fc0"/><stop offset="1" stop-color="#ff5a60"/></linearGradient></defs><title>reach_title</title><g id="Layer_2" data-name="Layer 2"><g id="Layer_1-2" data-name="Layer 1"><path class="cls-1" d="M142.93,423.84c-16.59,0-33-5.25-49.09-9.42l-10.1-5.52C154.44,427.23,227.1,405,266.07,380c59.39-38.14,107.36-101.37,116.63-153.75C400.33,126.75,267.32,27.67,139.11.52L147.74,0c66.88,14.16,131.41,44.64,177,85.83C373.67,130,396,180.14,387.68,227.15c-4.5,25.38-18.33,54.66-39,82.43a307.84,307.84,0,0,1-79.91,74.69c-26.65,17.12-54.44,28.86-82.6,34.9A211.81,211.81,0,0,1,142.93,423.84Z"/><path class="cls-2" d="M367.95,199c0,70.51-83,191.08-195.48,182.24C102.17,375.66,11,311.82,2.7,241.8-6.15,167.22,6.13,36.5,48.55,20,155.08-21.35,367.95,121.85,367.95,199Z"/><path class="cls-3" d="M60.59,222.88H53.53l-9.58-22H32.65v22H26.31V172.76H46.76a14.68,14.68,0,0,1,10.3,3.82,12.64,12.64,0,0,1,4.18,9.86c0,6.7-4.25,11.74-10.8,13.75Zm-15-44.57h-13v17H45.32c5.69,0,9.58-3.31,9.58-8.86S51.3,178.31,45.61,178.31Z"/><path class="cls-3" d="M100.33,222.88H68.65V172.76h31.68v5.83H75v16.2h21.6v5.54H75V217h25.35Z"/><path class="cls-3" d="M144.18,222.88h-6.7l-4-11.52H112.64l-4,11.52H102l18.36-50.12h5.47Zm-12.53-17-4.82-14-3.67-10.66h-.22l-3.53,10.37-5,14.33Z"/><path class="cls-3" d="M181.9,212.65c-2.52,6.7-8.5,10.66-16.49,10.66-5.69,0-10.08-1.73-13.18-5.26s-4.61-8-4.61-13.32V190.91a19.24,19.24,0,0,1,4.61-13.18c3.1-3.53,7.49-5.33,13.18-5.33,7.85,0,13.75,4,16.42,10.58l-5.9,2.66a10.79,10.79,0,0,0-10.44-7.13c-3.67,0-6.55,1.22-8.57,3.74a13.82,13.82,0,0,0-3,8.93v13a14.34,14.34,0,0,0,3,9.22,10.4,10.4,0,0,0,8.57,3.82A10.91,10.91,0,0,0,176,209.77Z"/><path class="cls-3" d="M222.58,222.88h-6.34V200.34H194.07v22.54h-6.34V172.76h6.34v22h22.18v-22h6.34Z"/><path class="cls-3" d="M276.51,172.76h6.34v32c0,5.69-1.66,10.15-4.9,13.54s-7.56,5-13,5c-5.69,0-10.08-1.73-13.18-5.26s-4.61-8-4.61-13.32v-32h6.26v31.47a14.33,14.33,0,0,0,3,9.22,10.4,10.4,0,0,0,8.57,3.82c7.13,0,11.45-4.75,11.45-13Z"/><path class="cls-3" d="M318.92,219.35c-3.31,2.66-7.63,4-13,4-6.62,0-14.26-2.52-19.23-6.84l4-5.11c4.1,4,9.22,5.9,15.48,5.9,6.7,0,11.16-2.88,11.16-8.71,0-5.11-3.82-6.77-11.59-8.28-1.44-.29-2.45-.5-3-.58l-2.81-.65a22.93,22.93,0,0,1-5.18-2.16c-1.94-1.08-2.59-2.23-3.74-3.89a12.38,12.38,0,0,1-1.44-6.62A12.53,12.53,0,0,1,294.29,176a18.74,18.74,0,0,1,11.88-3.74c6.7,0,12,1.58,16.06,4.82l-3.53,5.4a22.48,22.48,0,0,0-12.53-4c-6.62,0-10.37,3-10.37,7.92A5.6,5.6,0,0,0,299,191.7c2.09,1.08,5.76,2.16,10.87,3.17a26.25,26.25,0,0,1,7.63,2.38c3.89,1.87,6.12,5.11,6.41,11.38A13,13,0,0,1,318.92,219.35Z"/><path class="cls-3" d="M337,222.88h-6.48v-7.06H337Zm-.5-50.12-.72,37.37h-4.32l-.65-37.37Z"/></g></g></svg>