<svg xmlns="http://www.w3.org/2000/svg" viewBox="0 0 28.95 19.66">
  <defs>
    <style>
      .cls-1 {
        fill: #ff5a60;
      }
    </style>
  </defs>
  <title>reach_mail</title>
  <g id="Layer_2" data-name="Layer 2">
    <g id="Layer_1-2" data-name="Layer 1">
      <g>
        <path class="cls-1" d="M27,19.66H1.92A1.94,1.94,0,0,1,0,17.72V1.93A1.93,1.93,0,0,1,1.92,0H27A1.93,1.93,0,0,1,29,1.93v15.8A1.94,1.94,0,0,1,27,19.66ZM27,1.93,1.92,2,2,17.72l25-.06Z"/>
        <path class="cls-1" d="M14.1,12a2.36,2.36,0,0,1-1.7-.74c-.69-.69-7.55-5.76-12-9A1,1,0,0,1,1.59.69c1.14.84,11.19,8.18,12.22,9.2.08.08.31.31.72,0L27,.78A1,1,0,0,1,28.21,2.4l-12.43,9A2.56,2.56,0,0,1,14.1,12Z"/>
      </g>
    </g>
  </g>
</svg>
