<svg xmlns="http://www.w3.org/2000/svg" viewBox="0 0 20.07 28.84">
  <defs>
    <style>
      .cls-1 {
        fill: #ff5a60;
      }
    </style>
  </defs>
  <title>reach_location</title>
  <g id="Layer_2" data-name="Layer 2">
    <g id="Layer_1-2" data-name="Layer 1">
      <g>
        <path class="cls-1" d="M10,28.84a.94.94,0,0,1-.77-.4C8.89,27.91,0,15.3,0,10a10,10,0,1,1,20.07,0c0,5.26-8.89,17.87-9.27,18.4A.94.94,0,0,1,10,28.84Zm0-27A8.16,8.16,0,0,0,1.89,10c0,3.52,5.32,12.05,8.15,16.2,2.83-4.15,8.15-12.69,8.15-16.2A8.16,8.16,0,0,0,10,1.88Z"/>
        <path class="cls-1" d="M10,14.07a4.59,4.59,0,1,1,4.59-4.59A4.6,4.6,0,0,1,10,14.07Zm0-7.3a2.71,2.71,0,1,0,2.7,2.71A2.71,2.71,0,0,0,10,6.77Z"/>
      </g>
    </g>
  </g>
</svg>
