<svg xmlns="http://www.w3.org/2000/svg" viewBox="0 0 19.56 28.84">
  <defs>
    <style>
      .cls-1 {
        fill: #ff5a60;
      }
    </style>
  </defs>
  <title>reach_phone</title>
  <g id="Layer_2" data-name="Layer 2">
    <g id="Layer_1-2" data-name="Layer 1">
      <g>
        <path class="cls-1" d="M17.5,28.84H2.06A2.07,2.07,0,0,1,0,26.77V2.06A2.07,2.07,0,0,1,2.06,0H17.5a2.07,2.07,0,0,1,2.06,2.06V26.77A2.07,2.07,0,0,1,17.5,28.84ZM2.06,1.88a.18.18,0,0,0-.18.18V26.77a.18.18,0,0,0,.18.18H17.5a.18.18,0,0,0,.18-.18V2.06a.18.18,0,0,0-.18-.18Z"/>
        <path class="cls-1" d="M13.71,5.6H6.39a.94.94,0,1,1,0-1.88h7.32a.94.94,0,1,1,0,1.88Z"/>
        <circle class="cls-1" cx="10.05" cy="24.47" r="1.56"/>
      </g>
    </g>
  </g>
</svg>
