<svg xmlns="http://www.w3.org/2000/svg" viewBox="0 0 49.25 49.49">
  <defs>
    <style>
      .cls-1 {
        fill: #fff;
      }
    </style>
  </defs>
  <title>social_circle</title>
  <g id="Layer_2" data-name="Layer 2">
    <g id="Layer_1-2" data-name="Layer 1">
      <g id="Layer_2-2" data-name="Layer 2">
        <g id="Layer_1-2-2" data-name="Layer 1-2">
          <path class="cls-1" d="M5.51,39a.6.6,0,0,1-.4-.1C-.39,33.29,0,24.79,0,24.49a24.35,24.35,0,0,1,5.3-15.1A24.63,24.63,0,0,1,21.71.19a23.85,23.85,0,0,1,18,5.1.5.5,0,0,1-.6.8,23.25,23.25,0,0,0-17.4-4.9A23.06,23.06,0,0,0,6,10a23.81,23.81,0,0,0-5,14.5c0,.1-.4,8.4,4.9,13.6a.48.48,0,0,1,0,.7A.4.4,0,0,1,5.51,39Z"/>
          <path class="cls-1" d="M24.81,49.49a24.27,24.27,0,0,1-15.1-5.2.5.5,0,1,1,.6-.8,23.46,23.46,0,0,0,33-3.9,23.81,23.81,0,0,0,5-14.5c0-.1.4-8.4-4.9-13.6a.49.49,0,1,1,.7-.7c5.6,5.6,5.2,14,5.1,14.4a24.57,24.57,0,0,1-5.3,15.1A24,24,0,0,1,24.81,49.49Z"/>
        </g>
      </g>
    </g>
  </g>
</svg>
