<svg xmlns="http://www.w3.org/2000/svg" viewBox="0 0 49.37 49.47"><defs><style>.cls-1{fill:#fff;}</style></defs><title>social_frame</title><g id="Layer_2" data-name="Layer 2"><g id="Layer_1-2" data-name="Layer 1"><g id="Layer_2-2" data-name="Layer 2"><g id="Layer_1-2-2" data-name="Layer 1-2"><path class="cls-1" d="M5.51,39a.5.5,0,0,1-.35-.15C-.43,33.25,0,24.82,0,24.46A24.5,24.5,0,0,1,39.67,5.26a.5.5,0,1,1-.62.79A23.5,23.5,0,0,0,6.05,10,23.6,23.6,0,0,0,1,24.49C1,24.6.6,32.86,5.87,38.14a.5.5,0,0,1-.35.85Z"/><path class="cls-1" d="M24.83,49.47A24.38,24.38,0,0,1,9.69,44.22a.5.5,0,1,1,.62-.79,23.5,23.5,0,0,0,33-3.92,23.6,23.6,0,0,0,5-14.53c0-.11.42-8.37-4.85-13.65a.5.5,0,0,1,.71-.71c5.59,5.59,5.17,14,5.15,14.38A24.48,24.48,0,0,1,24.83,49.47Z"/></g></g></g></g></svg>