<?xml version="1.0" encoding="utf-8"?>
<!-- Generator: Adobe Illustrator 21.1.0, SVG Export Plug-In . SVG Version: 6.00 Build 0)  -->
<svg version="1.1" id="Layer_1" xmlns="http://www.w3.org/2000/svg" xmlns:xlink="http://www.w3.org/1999/xlink" x="0px" y="0px"
	 viewBox="0 0 49.3 49.5" style="enable-background:new 0 0 49.3 49.5;" xml:space="preserve">
<style type="text/css">
	.st0{fill:#FFFFFF;}
</style>
<title>social_circle</title>
<g>
	<g id="Layer_2">
		<g id="Layer_1-2">
			<g id="Layer_2-2">
				<g id="Layer_1-2-2">
					<path class="st0" d="M114.7,65.5c-0.1,0-0.3,0-0.4-0.1c-5.5-5.6-5.1-14.1-5.1-14.4c0-5.5,1.9-10.8,5.3-15.1
						c4-5.1,9.9-8.4,16.4-9.2c6.4-0.8,12.9,1,18,5.1c0.2,0.2,0.3,0.5,0.1,0.7c-0.2,0.2-0.5,0.3-0.7,0.1c-4.9-3.9-11.2-5.7-17.4-4.9
						c-6.2,0.7-11.9,3.9-15.7,8.8c-3.2,4.1-5,9.2-5,14.5c0,0.1-0.4,8.4,4.9,13.6c0.2,0.2,0.2,0.5,0,0.7c0,0,0,0,0,0
						C115.1,65.4,114.9,65.5,114.7,65.5z"/>
					<path class="st0" d="M134,76c-5.5,0-10.8-1.8-15.1-5.2c-0.2-0.2-0.3-0.5-0.1-0.7c0.2-0.2,0.5-0.3,0.7-0.1c0,0,0,0,0,0
						c10.2,8,24.9,6.3,33-3.8c0,0,0,0,0-0.1c3.2-4.1,5-9.2,5-14.5c0-0.1,0.4-8.4-4.9-13.6c-0.2-0.2-0.2-0.5,0-0.7s0.5-0.2,0.7,0l0,0
						c5.6,5.6,5.2,14,5.1,14.4c0,5.5-1.9,10.8-5.3,15.1C148.5,72.7,141.5,76.1,134,76z"/>
				</g>
			</g>
		</g>
	</g>
	<g>
		<path id="Facebook_Places" class="st0" d="M142.6,45c-0.1-0.4-0.3-0.7-0.4-1.1c-1.7-4.1-5.4-5.6-8.4-5.6c-4,0-8.4,2.7-9,8.2
			c0,0,0,0.1,0,0.1v1.1c0,0,0,0.5,0,0.7c0.3,2.7,2.4,5.5,4,8.1c1.4,2.4,2.9,4.8,4.4,7.2c0.3,0.5,1.1,0.5,1.5,0
			c0.8-1.4,1.6-2.8,2.5-4.2c0.3-0.5,0.6-1,0.9-1.5c0.2-0.3,0.6-0.7,0.7-1c1.7-3.1,4.4-6.2,4.4-9.2v-1.3C143,46.2,142.6,45,142.6,45z
			 M133.8,50.7c-1.2,0-2.5-0.6-3.1-2.2c-0.1-0.3-0.1-0.8-0.1-0.8v-0.7c0-2.1,1.8-3,3.3-3c1.9,0,3.4,1.5,3.4,3.4
			C137.3,49.2,135.7,50.7,133.8,50.7z"/>
	</g>
</g>
<g>
	<g id="Layer_2_1_">
		<g id="Layer_1-2_1_">
			<g id="Layer_2-2_1_">
				<g id="Layer_1-2-2_1_">
					<path class="st0" d="M187.6,65.5c-0.1,0-0.3,0-0.4-0.1c-5.5-5.6-5.1-14.1-5.1-14.4c0-5.5,1.9-10.8,5.3-15.1
						c4-5.1,9.9-8.4,16.4-9.2c6.4-0.8,12.9,1,18,5.1c0.2,0.2,0.3,0.5,0.1,0.7c-0.2,0.2-0.5,0.3-0.7,0.1c-4.9-3.9-11.2-5.7-17.4-4.9
						c-6.2,0.7-11.9,3.9-15.7,8.8c-3.2,4.1-5,9.2-5,14.5c0,0.1-0.4,8.4,4.9,13.6c0.2,0.2,0.2,0.5,0,0.7c0,0,0,0,0,0
						C187.9,65.4,187.8,65.5,187.6,65.5z"/>
					<path class="st0" d="M206.9,76c-5.5,0-10.8-1.8-15.1-5.2c-0.2-0.2-0.3-0.5-0.1-0.7c0.2-0.2,0.5-0.3,0.7-0.1c0,0,0,0,0,0
						c10.2,8,24.9,6.3,33-3.8c0,0,0,0,0-0.1c3.2-4.1,5-9.2,5-14.5c0-0.1,0.4-8.4-4.9-13.6c-0.2-0.2-0.2-0.5,0-0.7
						c0.2-0.2,0.5-0.2,0.7,0l0,0c5.6,5.6,5.2,14,5.1,14.4c0,5.5-1.9,10.8-5.3,15.1C221.4,72.7,214.4,76.1,206.9,76z"/>
				</g>
			</g>
		</g>
	</g>
	<g>
		<circle class="st0" cx="213.6" cy="44.5" r="1.6"/>
		<path class="st0" d="M213.1,38.4h-12.7c-3.6,0-6.5,2.9-6.5,6.5v12.7c0,3.6,2.9,6.5,6.5,6.5h12.7c3.6,0,6.5-2.9,6.5-6.5V44.9
			C219.6,41.3,216.7,38.4,213.1,38.4z M216.8,57.6c0,2-1.6,3.7-3.7,3.7h-12.7c-2,0-3.7-1.6-3.7-3.7V44.9c0-2,1.6-3.7,3.7-3.7h12.7
			c2,0,3.7,1.6,3.7,3.7V57.6z"/>
		<path class="st0" d="M206.7,44.6c-3.6,0-6.6,3-6.6,6.6c0,3.6,3,6.6,6.6,6.6s6.6-3,6.6-6.6C213.4,47.6,210.4,44.6,206.7,44.6z
			 M206.7,55.1c-2.1,0-3.8-1.7-3.8-3.8c0-2.1,1.7-3.8,3.8-3.8c2.1,0,3.8,1.7,3.8,3.8C210.6,53.4,208.9,55.1,206.7,55.1z"/>
	</g>
</g>
<g>
	<g id="Layer_2_3_">
		<g id="Layer_1-2_3_">
			<g id="Layer_2-2_3_">
				<g id="Layer_1-2-2_3_">
					<path class="st0" d="M257.1,65.6c-0.1,0-0.3,0-0.4-0.1c-5.5-5.6-5.1-14.1-5.1-14.4c0-5.5,1.9-10.8,5.3-15.1
						c4-5.1,9.9-8.4,16.4-9.2c6.4-0.8,12.9,1,18,5.1c0.2,0.2,0.3,0.5,0.1,0.7c-0.2,0.2-0.5,0.3-0.7,0.1c-4.9-3.9-11.2-5.7-17.4-4.9
						c-6.2,0.7-11.9,3.9-15.7,8.8c-3.2,4.1-5,9.2-5,14.5c0,0.1-0.4,8.4,4.9,13.6c0.2,0.2,0.2,0.5,0,0.7c0,0,0,0,0,0
						C257.5,65.5,257.3,65.6,257.1,65.6z"/>
					<path class="st0" d="M276.4,76.1c-5.5,0-10.8-1.8-15.1-5.2c-0.2-0.2-0.3-0.5-0.1-0.7c0.2-0.2,0.5-0.3,0.7-0.1c0,0,0,0,0,0
						c10.2,8,24.9,6.3,33-3.8c0,0,0,0,0-0.1c3.2-4.1,5-9.2,5-14.5c0-0.1,0.4-8.4-4.9-13.6c-0.2-0.2-0.2-0.5,0-0.7
						c0.2-0.2,0.5-0.2,0.7,0l0,0c5.6,5.6,5.2,14,5.1,14.4c0,5.5-1.9,10.8-5.3,15.1C290.9,72.7,283.9,76.1,276.4,76.1z"/>
				</g>
			</g>
		</g>
	</g>
	<g>
		<path class="st0" d="M279,56.2c0-0.1,0-0.3-0.1-0.4c-0.1-0.2-0.2-0.2-0.4-0.3c-0.2,0-0.4,0.1-0.5,0.2c-0.1,0.1-0.1,0.1-0.1,0.1
			l0,4.2v0.1c0,0,0,0,0,0.1c0.1,0.1,0.3,0.2,0.4,0.3c0.3,0.1,0.5-0.1,0.6-0.3c0-0.1,0-0.1,0-0.2C279,58.7,279,57.5,279,56.2z
			 M279,56.2c0-0.1,0-0.3-0.1-0.4c-0.1-0.2-0.2-0.2-0.4-0.3c-0.2,0-0.4,0.1-0.5,0.2c-0.1,0.1-0.1,0.1-0.1,0.1l0,4.2v0.1
			c0,0,0,0,0,0.1c0.1,0.1,0.3,0.2,0.4,0.3c0.3,0.1,0.5-0.1,0.6-0.3c0-0.1,0-0.1,0-0.2C279,58.7,279,57.5,279,56.2z M283.7,50
			c-4.9-0.1-9.9-0.1-14.8,0c-1.7,0-3.1,1.4-3.1,3.1v7.7c0,1.7,1.4,3.1,3.1,3.1c4.9,0.1,9.9,0.1,14.8,0c1.7,0,3.1-1.4,3.1-3.1v-7.7
			C286.7,51.4,285.4,50,283.7,50z M270.3,61.5h-1.4v-8h-1.5v-1.3h4.4v1.3h-1.5V61.5z M275.4,58.2v3.3h-1.3v-0.8c0,0-0.1,0.1-0.1,0.1
			c-0.3,0.3-0.6,0.6-1,0.7c-0.2,0.1-0.4,0.1-0.6,0.1c-0.3,0-0.5-0.2-0.6-0.5c-0.1-0.2-0.1-0.5-0.1-0.7c0-0.9,0-5.8,0-5.8h1.3
			c0,0,0,3.5,0,5.2c0,0.1,0,0.2,0,0.3c0,0.2,0.2,0.3,0.4,0.2c0.3-0.1,0.4-0.3,0.6-0.5c0,0,0-0.1,0-0.1v-5.2l1.3,0
			C275.4,54.6,275.4,57,275.4,58.2z M280.2,60.8c-0.2,0.5-0.5,0.8-1.1,0.8c-0.4,0-0.8-0.2-1.1-0.5c0,0-0.1-0.1-0.1-0.1v0.5h-1.3
			v-9.4h1.3c0,1,0,3.1,0,3.1s0.1-0.1,0.1-0.2c0.2-0.2,0.4-0.4,0.7-0.5c0.5-0.1,1,0,1.3,0.6c0.2,0.3,0.2,0.7,0.2,1.1
			c0,1.3,0,2.6,0,3.9C280.3,60.4,280.3,60.6,280.2,60.8z M284.8,60.6c-0.2,0.6-0.7,1-1.3,1.1c-0.4,0.1-0.8,0.1-1.2-0.1
			c-0.5-0.2-0.8-0.7-1-1.2c-0.1-0.3-0.1-0.5-0.1-0.8c0-1,0-2.1,0-3.1c0-0.5,0.1-1,0.5-1.4c0.4-0.5,1-0.6,1.6-0.6
			c0.2,0,0.4,0,0.5,0.1c0.6,0.2,0.9,0.6,1,1.2c0,0.2,0.1,0.5,0.1,0.7c0,0.5,0,1.8,0,1.8h-2.4v1.7c0,0.3,0.3,0.6,0.6,0.6
			c0.3,0,0.6-0.3,0.6-0.6V59h1.3C285,59,285,60.1,284.8,60.6z M283.7,56.2c0-0.3-0.3-0.6-0.6-0.6c-0.3,0-0.6,0.3-0.6,0.6v1h1.1V56.2
			z M278.9,55.8c-0.1-0.2-0.2-0.2-0.4-0.3c-0.2,0-0.4,0.1-0.5,0.2c-0.1,0.1-0.1,0.1-0.1,0.1l0,4.2v0.1c0,0,0,0,0,0.1
			c0.1,0.1,0.3,0.2,0.4,0.3c0.3,0.1,0.5-0.1,0.6-0.3c0-0.1,0-0.1,0-0.2c0-1.2,0-2.5,0-3.7C279,56.1,279,56,278.9,55.8z"/>
		<path class="st0" d="M282.1,41l0,7h-1.3l0-0.7c-0.1,0.1-0.3,0.3-0.4,0.4c-0.2,0.2-0.5,0.4-0.8,0.4c-0.5,0.1-0.9-0.1-1-0.6
			c-0.1-0.2-0.1-0.3-0.1-0.5v-6h1.3v5.3c0,0.1,0,0.1,0,0.2c0,0.2,0.2,0.3,0.4,0.2c0.3-0.1,0.5-0.3,0.6-0.5c0,0,0-0.1,0-0.1V41H282.1
			z"/>
		<path class="st0" d="M271.4,42.3c-0.3-1.2-0.9-3.7-0.9-3.7h-1.5c0,0,1.1,3.7,1.6,5.4c0,0.1,0,0.1,0,0.2l0,3.8h1.4l0-3.8
			c0-0.1,0-0.1,0-0.2c0.5-1.7,1.6-5.4,1.6-5.4h-1.5C272.3,38.6,271.7,41.1,271.4,42.3L271.4,42.3z"/>
		<path class="st0" d="M275.6,40.9L275.6,40.9c-1,0-1.8,0.8-1.8,1.8v3.6c0,1,0.8,1.8,1.8,1.8l0,0c1,0,1.8-0.8,1.8-1.8v-3.6
			C277.4,41.7,276.6,40.9,275.6,40.9z M276.1,46.4c0,0.3-0.2,0.5-0.5,0.5s-0.5-0.2-0.5-0.5v-3.8c0-0.3,0.2-0.5,0.5-0.5
			s0.5,0.2,0.5,0.5V46.4z"/>
	</g>
</g>
<g>
	<g id="Layer_2_2_">
		<g id="Layer_1-2_2_">
			<g id="Layer_2-2_2_">
				<g id="Layer_1-2-2_2_">
					<path class="st0" d="M330.3,65.5c-0.1,0-0.3,0-0.4-0.1c-5.5-5.6-5.1-14.1-5.1-14.4c0-5.5,1.9-10.8,5.3-15.1
						c4-5.1,9.9-8.4,16.4-9.2c6.4-0.8,12.9,1,18,5.1c0.2,0.2,0.3,0.5,0.1,0.7c-0.2,0.2-0.5,0.3-0.7,0.1c-4.9-3.9-11.2-5.7-17.4-4.9
						c-6.2,0.7-11.9,3.9-15.7,8.8c-3.2,4.1-5,9.2-5,14.5c0,0.1-0.4,8.4,4.9,13.6c0.2,0.2,0.2,0.5,0,0.7c0,0,0,0,0,0
						C330.6,65.4,330.4,65.5,330.3,65.5z"/>
					<path class="st0" d="M349.6,76c-5.5,0-10.8-1.8-15.1-5.2c-0.2-0.2-0.3-0.5-0.1-0.7c0.2-0.2,0.5-0.3,0.7-0.1c0,0,0,0,0,0
						c10.2,8,24.9,6.3,33-3.8c0,0,0,0,0-0.1c3.2-4.1,5-9.2,5-14.5c0-0.1,0.4-8.4-4.9-13.6c-0.2-0.2-0.2-0.5,0-0.7
						c0.2-0.2,0.5-0.2,0.7,0l0,0c5.6,5.6,5.2,14,5.1,14.4c0,5.5-1.9,10.8-5.3,15.1C364.1,72.7,357,76.1,349.6,76z"/>
				</g>
			</g>
		</g>
	</g>
	<path class="st0" d="M354.8,51.2h-3.5v12.9H346V51.2h-2.5v-4.5h2.5v-2.9c0-2.1,1-5.4,5.4-5.4l3.9,0v4.4h-2.9
		c-0.5,0-1.1,0.2-1.1,1.2v2.7h4L354.8,51.2z"/>
</g>
</svg>
