<svg xmlns="http://www.w3.org/2000/svg" xmlns:xlink="http://www.w3.org/1999/xlink" viewBox="0 0 471.51 513.23"><defs><style>.cls-1{fill:#ff5a60;}.cls-2{opacity:0.85;}.cls-3{fill:url(#linear-gradient);}.cls-4{fill:#fff;}</style><linearGradient id="linear-gradient" x1="45.4" y1="376.87" x2="332.68" y2="89.6" gradientUnits="userSpaceOnUse"><stop offset="0" stop-color="#fc0"/><stop offset="0.01" stop-color="#ffc903"/><stop offset="0.13" stop-color="#ffa71f"/><stop offset="0.26" stop-color="#ff8b37"/><stop offset="0.4" stop-color="#ff7549"/><stop offset="0.56" stop-color="#ff6656"/><stop offset="0.74" stop-color="#ff5d5e"/><stop offset="1" stop-color="#ff5a60"/></linearGradient></defs><title>society_header</title><g id="Layer_2" data-name="Layer 2"><g id="Layer_1-2" data-name="Layer 1"><path class="cls-1" d="M173.08,513.23c-20.09,0-40-6.35-59.45-11.41l-12.23-6.69c85.61,22.2,173.6-4.67,220.79-35C394.1,414,452.18,337.41,463.41,274,484.76,153.48,323.7,33.51,168.45.63L178.9,0c81,17.15,159.12,54.06,214.38,103.94,59.19,53.43,86.24,114.2,76.16,171.12-5.44,30.74-22.2,66.19-47.18,99.82a372.76,372.76,0,0,1-96.77,90.44c-32.27,20.73-65.92,34.95-100,42.26A256.48,256.48,0,0,1,173.08,513.23Z"/><g class="cls-2"><path class="cls-3" d="M445.54,240.91c0,85.38-100.47,231.38-236.71,220.67-85.12-6.69-195.51-84-205.57-168.78C-7.44,202.49,7.43,44.2,58.79,24.25,187.79-25.85,445.54,147.54,445.54,240.91Z"/></g><path class="cls-4" d="M67.75,173.19H54.23v42.28h-6V173.19H34.69v-5.26H67.75Z"/><path class="cls-4" d="M104.83,215.46H98.14l-9.08-20.9H78.33v20.9h-6V167.93h19.4a13.93,13.93,0,0,1,9.77,3.62,12,12,0,0,1,4,9.36c0,6.35-4,11.13-10.24,13ZM90.63,173.19H78.33V189.3h12c5.4,0,9.08-3.14,9.08-8.4S96,173.19,90.63,173.19Z"/><path class="cls-4" d="M118.49,215.46h-6V167.93h6Z"/><path class="cls-4" d="M158.31,215.46H128.26V167.93h6v42h24Z"/><path class="cls-4" d="M194.71,215.46H164.66V167.93h6v42h24Z"/><path class="cls-4" d="M207.07,215.46h-6V167.93h6Z"/><path class="cls-4" d="M243.68,167.93h6v30.32c0,5.4-1.57,9.63-4.64,12.84s-7.17,4.78-12.29,4.78c-5.4,0-9.56-1.64-12.5-5a18.48,18.48,0,0,1-4.37-12.64V167.93h5.94v29.85a13.6,13.6,0,0,0,2.87,8.74,9.86,9.86,0,0,0,8.13,3.62c6.76,0,10.86-4.51,10.86-12.36Z"/><path class="cls-4" d="M299.82,215.46h-6V181.59l-.21.14-3.69,8.95-8.2,17.76h-5.26l-8.33-18.3-3.55-8.54-.2.14v33.74h-6V167.93h6l10,22.2,4.71,11.06h.21l4.71-11,9.9-22.27h5.87Z"/><path class="cls-4" d="M78,291.36c-4.43,3.56-10.21,5.3-17.43,5.3-8.86,0-19.06-3.37-25.71-9.15l5.39-6.84c5.49,5.3,12.32,7.9,20.7,7.9,9,0,14.92-3.85,14.92-11.65,0-6.84-5.1-9.05-15.5-11.07-1.93-.39-3.27-.67-4-.77l-3.75-.87c-3.37-.87-4.24-1.64-6.93-2.89-2.6-1.44-3.47-3-5-5.2s-1.93-5.3-1.93-8.86q0-8.81,6.35-13.86c4.33-3.37,9.63-5,15.89-5,9,0,16.08,2.12,21.47,6.45l-4.72,7.22a30.06,30.06,0,0,0-16.75-5.39c-8.86,0-13.86,3.95-13.86,10.59a7.49,7.49,0,0,0,4.24,7.13c2.79,1.44,7.7,2.89,14.54,4.24A35.12,35.12,0,0,1,76,261.8c5.2,2.5,8.18,6.84,8.57,15.21A17.37,17.37,0,0,1,78,291.36Z"/><path class="cls-4" d="M132,235.51c4.33,4.62,6.55,10.59,6.55,17.81v18.49c0,7.61-2.21,13.58-6.55,18.1s-10.11,6.74-17.33,6.74c-7.61,0-13.48-2.31-17.62-7s-6.16-10.69-6.16-17.81V253.33c0-7,2-12.9,6.16-17.62s10-7.12,17.62-7.12Q125.47,228.58,132,235.51Zm-28.69,6.07a18.47,18.47,0,0,0-4,11.94v17.81a19.17,19.17,0,0,0,4,12.32c2.7,3.37,6.55,5.1,11.46,5.1a13.79,13.79,0,0,0,11.07-4.91A18.58,18.58,0,0,0,130,271.33V253.52a17.65,17.65,0,0,0-4.24-12,13.79,13.79,0,0,0-11.07-4.91C109.82,236.57,106,238.21,103.28,241.58Z"/><path class="cls-4" d="M193.21,282.4c-3.37,9-11.36,14.25-22,14.25-7.61,0-13.48-2.31-17.62-7s-6.16-10.69-6.16-17.81V253.33c0-7,2-12.9,6.16-17.62s10-7.12,17.62-7.12c10.49,0,18.39,5.39,22,14.15l-7.9,3.56a14.43,14.43,0,0,0-14-9.53c-4.91,0-8.76,1.64-11.46,5a18.47,18.47,0,0,0-4,11.94v17.43a19.17,19.17,0,0,0,4,12.32c2.7,3.37,6.55,5.1,11.46,5.1,6.64,0,11.75-3.85,14.06-10Z"/><path class="cls-4" d="M209.48,296.08H201v-67h8.47Z"/><path class="cls-4" d="M265.61,296.08H223.25v-67h42.36v7.8H231.72v21.66h28.88v7.41H231.72v22.34h33.89Z"/><path class="cls-4" d="M313.95,236.48H294.89v59.6h-8.47v-59.6H267.35v-7.41h46.6Z"/><path class="cls-4" d="M361.61,229.06,341.49,269.5v26.57H333.4V269.5l-20.12-40.44h9l9.34,18.58,6,12.81,6.26-13.38,9.05-18Z"/></g></g></svg>