<svg xmlns="http://www.w3.org/2000/svg" viewBox="0 0 248.71 249.44"><defs><style>.cls-1{fill:#fff;}</style></defs><title>trillium_shape</title><g id="Layer_2" data-name="Layer 2"><g id="Layer_1-2" data-name="Layer 1"><path class="cls-1" d="M124.65,249.44q-4,0-8.09-.32C69.23,245.39,7.5,202.46,1.84,154.73c-3.15-26.54-2.2-60.64,2.48-89,4-24.05,12.23-54.1,29.08-60.65,43-16.71,107.24,10.85,149.15,39.53,40.81,27.93,66.16,59.1,66.16,81.34,0,28.12-19,65.34-46.25,90.51C185.81,231.85,159.21,249.44,124.65,249.44ZM63.06,3a78.69,78.69,0,0,0-28.58,4.9C22.37,12.57,12.7,33.29,7.28,66.2,2.64,94.31,1.7,128.1,4.81,154.37c5.5,46.38,65.76,88.12,112,91.75q4,.31,7.84.31c33.62,0,59.54-17.17,75.79-32.18,26.66-24.65,45.28-61,45.28-88.31,0-20.94-25.46-51.9-64.86-78.86C148.15,24.7,101.77,3,63.06,3Z"/></g></g></svg>