<svg xmlns="http://www.w3.org/2000/svg" viewBox="0 0 230.64 232.1">
  <defs>
    <style>
      .cls-1 {
        fill: #fff;
      }
    </style>
  </defs>
  <title>trillium_frame_1</title>
  <g id="Layer_2" data-name="Layer 2">
    <g id="Layer_1-2" data-name="Layer 1">
      <g id="Layer_2-2" data-name="Layer 2">
        <g id="Layer_1-2-2" data-name="Layer 1-2">
          <g id="Layer_2-2-2" data-name="Layer 2-2">
            <g id="Layer_1-2-2-2" data-name="Layer 1-2-2">
              <path class="cls-1" d="M115.63,232.1c-35.28,0-104.77-34.87-114-86.74C-.25,135-3.47,71.81,11.86,29.64c4.3-11.83,12-20.25,22.74-25,25.6-11.3,62.34.58,82,8.66C151.23,27.56,189.79,55.05,217.19,85c10.25,11.21,14.68,24.92,13.16,40.74-3.58,37.34-38.34,74.39-54.61,86.48C163.49,221.34,149,230.38,118.28,232A25.62,25.62,0,0,1,115.63,232.1ZM59.4,3.67C51.14,3.67,43.15,4.91,36.1,8c-9.83,4.34-16.81,12-20.76,22.89C.26,72.38,3.43,134.52,5.24,144.71c5.44,30.45,31.9,51.58,47.19,61.47,21.93,14.19,48.31,23.09,65.65,22.15,29.67-1.6,43.16-9.94,55.45-19.07,19.58-14.55,50-51.26,53.13-83.86,1.41-14.73-2.7-27.48-12.21-37.89-27.06-29.59-65.1-56.72-99.29-70.8h0C101.61,11.13,79.69,3.67,59.4,3.67Z"/>
            </g>
          </g>
        </g>
      </g>
    </g>
  </g>
</svg>
