<svg xmlns="http://www.w3.org/2000/svg" viewBox="0 0 49.26 49.49"><defs><style>.cls-1{fill:#fff;}</style></defs><title>youtube</title><g id="Layer_2" data-name="Layer 2"><g id="Layer_1-2" data-name="Layer 1"><g id="Layer_2-2" data-name="Layer 2"><g id="Layer_1-2-2" data-name="Layer 1-2"><g id="Layer_2-2-2" data-name="Layer 2-2"><g id="Layer_1-2-2-2" data-name="Layer 1-2-2"><path class="cls-1" d="M5.52,39a.6.6,0,0,1-.4-.1C-.38,33.29,0,24.79,0,24.49a24.35,24.35,0,0,1,5.3-15.1A24.63,24.63,0,0,1,21.72.19a23.85,23.85,0,0,1,18,5.1.5.5,0,0,1-.6.8,23.25,23.25,0,0,0-17.4-4.9A23.06,23.06,0,0,0,6,10,23.81,23.81,0,0,0,1,24.5c0,.1-.4,8.4,4.9,13.6a.48.48,0,0,1,0,.68l0,0A.4.4,0,0,1,5.52,39Z"/><path class="cls-1" d="M24.82,49.49a24.27,24.27,0,0,1-15.1-5.2.5.5,0,1,1,.6-.8h0a23.46,23.46,0,0,0,33-3.84l0-.06a23.81,23.81,0,0,0,5-14.5c0-.1.4-8.4-4.9-13.6a.49.49,0,1,1,.7-.7h0c5.6,5.6,5.2,14,5.1,14.4a24.57,24.57,0,0,1-5.3,15.1A24,24,0,0,1,24.82,49.49Z"/></g></g></g></g><path class="cls-1" d="M27.36,29.68a1.11,1.11,0,0,0-.09-.39A.42.42,0,0,0,26.9,29a.66.66,0,0,0-.52.19.34.34,0,0,0-.09.13v4.27l0,.05a.83.83,0,0,0,.44.27.43.43,0,0,0,.56-.34,1,1,0,0,0,0-.21C27.37,32.16,27.37,30.92,27.36,29.68Zm0,0a1.11,1.11,0,0,0-.09-.39A.42.42,0,0,0,26.9,29a.66.66,0,0,0-.52.19.34.34,0,0,0-.09.13v4.27l0,.05a.83.83,0,0,0,.44.27.43.43,0,0,0,.56-.34,1,1,0,0,0,0-.21C27.37,32.16,27.37,30.92,27.36,29.68ZM32,23.39q-7.4-.16-14.8,0a3.15,3.15,0,0,0-3.08,3.15v7.7a3.15,3.15,0,0,0,3.08,3.15q7.4.16,14.8,0a3.15,3.15,0,0,0,3.08-3.15v-7.7A3.15,3.15,0,0,0,32,23.39ZM18.68,34.95H17.26v-8H15.78V25.56h4.37V26.9H18.68Zm5.09-3.34v3.34H22.51v-.76l-.09.1a2.31,2.31,0,0,1-1,.7,1.18,1.18,0,0,1-.59.05.73.73,0,0,1-.57-.45,1.76,1.76,0,0,1-.13-.73c0-.92,0-5.78,0-5.83h1.26s0,3.53,0,5.24a1.39,1.39,0,0,0,0,.28.31.31,0,0,0,.44.25,1.37,1.37,0,0,0,.61-.48.22.22,0,0,0,0-.13V28h1.26Zm4.79,2.67a1,1,0,0,1-1.07.76,1.42,1.42,0,0,1-1.07-.49l-.12-.13v.53H25V25.56h1.26v3.09a1.27,1.27,0,0,1,.14-.22,1.45,1.45,0,0,1,.73-.46,1.09,1.09,0,0,1,1.31.59,2.44,2.44,0,0,1,.2,1.05q0,2,0,3.94A2.3,2.3,0,0,1,28.56,34.28ZM33.22,34a1.54,1.54,0,0,1-1.33,1.09,2.11,2.11,0,0,1-1.2-.12,1.67,1.67,0,0,1-1-1.22,3.67,3.67,0,0,1-.09-.78c0-1,0-2.06,0-3.08a2.08,2.08,0,0,1,.5-1.44,1.84,1.84,0,0,1,1.57-.61,2.2,2.2,0,0,1,.55.1,1.53,1.53,0,0,1,1,1.24,3.72,3.72,0,0,1,.07.7c0,.55,0,1.76,0,1.76H30.94v1.73a.56.56,0,1,0,1.13,0v-.89h1.3A6.29,6.29,0,0,1,33.22,34ZM32.07,29.6a.56.56,0,1,0-1.13,0v1h1.13Zm-4.79-.31A.42.42,0,0,0,26.9,29a.66.66,0,0,0-.52.19.34.34,0,0,0-.09.13v4.27l0,.05a.83.83,0,0,0,.44.27.43.43,0,0,0,.56-.34,1,1,0,0,0,0-.21c0-1.24,0-2.48,0-3.72A1.11,1.11,0,0,0,27.28,29.29Z"/><path class="cls-1" d="M30.5,14.49v7H29.21v-.75c-.14.14-.26.27-.4.39a1.74,1.74,0,0,1-.82.43.82.82,0,0,1-1-.56,1.84,1.84,0,0,1-.08-.52v-6h1.28V19.8a1.2,1.2,0,0,0,0,.21.29.29,0,0,0,.41.25,1.38,1.38,0,0,0,.62-.48.23.23,0,0,0,0-.13V14.49Z"/><path class="cls-1" d="M19.82,15.7,19,12H17.48l1.63,5.41a.67.67,0,0,1,0,.19v3.83H20.5V17.62a.67.67,0,0,1,0-.19L22.16,12H20.69l-.87,3.68Z"/><path class="cls-1" d="M23.93,14.31h0a1.85,1.85,0,0,0-1.85,1.85v3.62a1.85,1.85,0,0,0,1.85,1.85h0a1.85,1.85,0,0,0,1.85-1.85V16.16A1.85,1.85,0,0,0,23.93,14.31Zm.53,5.54a.53.53,0,0,1-1.07,0V16.09a.53.53,0,0,1,1.07,0Z"/></g></g></svg>